<svg class="absolute -top-[110px] -left-4 aspect-auto text-champagne-50" height="427" viewbox="0 0 70 427" width="70" xmlns="http://www.w3.org/2000/svg">
     <path clip-rule="evenodd" d="M23.411 -342.794C13.5223 -329.879 5.14093 -317.303 -6.71677 -297.591C-13.0848 -287.006 -16.136 -282.819 -17.5653 -282.705C-20.2455 -282.49 -49.9156 -287.385 -57.2718 -289.256L-63.1538 -290.752L-62.7929 -286.08L-62.4321 -281.408L-54.0171 -279.58C-49.3894 -278.574 -40.0136 -276.927 -33.1825 -275.92C-26.3523 -274.912 -20.7391 -273.821 -20.7099 -273.494C-20.6808 -273.169 -22.6554 -268.806 -25.0977 -263.798C-31.1918 -251.303 -46.0099 -215.542 -51.1329 -200.967L-55.3533 -188.962L-54.2035 -177.725L-53.0537 -166.487L-47.8908 -182.52C-39.0742 -209.898 -24.441 -246.091 -13.8981 -266.597L-10.8247 -272.575L4.9642 -274.085C15.7835 -275.12 22.91 -276.3 27.6012 -277.836C38.5819 -281.429 37.8964 -280.877 37.5152 -285.813C37.1784 -290.174 37.1244 -290.236 34.4852 -289.335C23.7821 -285.68 12.8459 -283.197 4.42464 -282.511C-0.919186 -282.076 -5.3126 -281.983 -5.33752 -282.306C-5.44551 -283.704 17.1779 -319.413 24.7973 -329.871L33.1702 -341.362L32.7252 -347.474C32.4806 -350.836 32.1346 -353.575 31.9572 -353.561C31.7808 -353.547 27.9339 -348.702 23.411 -342.794ZM-46.6946 -77.6702L-46.3121 -72.7185L-37.7922 -69.596C-28.0429 -66.022 -14.353 -63.0793 -3.96712 -62.3244C9.95273 -61.3124 29.6982 -65.4818 46.6814 -73.0184L53.7113 -76.138L53.3467 -80.858L52.982 -85.579L47.1926 -82.72C29.6719 -74.0672 7.717 -69.5999 -8.10615 -71.4667C-18.7109 -72.7176 -30.6932 -75.8845 -39.4879 -79.7602C-43.1518 -81.3751 -46.3574 -82.6795 -46.6126 -82.6591C-46.8678 -82.6386 -46.905 -80.3939 -46.6946 -77.6702ZM-26.5417 183.229L-26.0674 189.371L-16.044 198.544C1.38033 214.493 8.03019 221.047 17.4516 231.556C38.0909 254.576 52.3058 278.949 57.831 300.791C58.7968 304.608 59.7177 312.778 60.029 320.288C60.6573 335.485 58.9041 344.35 52.9222 356.219C45.6454 370.658 25.4249 391.943 2.61751 409.172L-8.30718 417.425L-7.97985 422.597C-7.58846 428.781 -8.63637 429.184 7.53244 416.623C43.8578 388.399 60.7073 367.564 67.1637 342.882C69.3457 334.543 69.5568 331.913 69.0204 319.75C68.3147 303.772 66.1082 294.28 59.519 278.889C51.1774 259.407 33.4325 234.387 14.5053 215.419C4.12318 205.015 -19.7525 182.72 -24.2287 179.249L-27.0162 177.087L-26.5417 183.229Z" fill="#F3D9D1" fill-opacity="0.2" fill-rule="evenodd">
     </path>
    </svg>