<svg class="w-4 sm:w-5" fill="none" viewbox="0 0 20 20" xmlns="http://www.w3.org/2000/svg">
        <path d="M14.1666 8.14076C14.0104 7.98556 13.7992 7.89844 13.5791 7.89844C13.3589 7.89844 13.1477 7.98556 12.9916 8.14076L9.99992 11.0908L7.04992 8.14076C6.89378 7.98556 6.68257 7.89844 6.46242 7.89844C6.24226 7.89844 6.03105 7.98556 5.87492 8.14076C5.79681 8.21823 5.73481 8.3104 5.69251 8.41195C5.6502 8.5135 5.62842 8.62242 5.62842 8.73243C5.62842 8.84244 5.6502 8.95136 5.69251 9.05291C5.73481 9.15446 5.79681 9.24663 5.87492 9.3241L9.40825 12.8574C9.48572 12.9355 9.57789 12.9975 9.67944 13.0398C9.78099 13.0821 9.88991 13.1039 9.99992 13.1039C10.1099 13.1039 10.2188 13.0821 10.3204 13.0398C10.4219 12.9975 10.5141 12.9355 10.5916 12.8574L14.1666 9.3241C14.2447 9.24663 14.3067 9.15446 14.349 9.05291C14.3913 8.95136 14.4131 8.84244 14.4131 8.73243C14.4131 8.62242 14.3913 8.5135 14.349 8.41195C14.3067 8.3104 14.2447 8.21823 14.1666 8.14076Z" fill="currentColor">
        </path>
       </svg>