<svg fill="currentColor" height="21" viewbox="0 0 20 21" width="20" xmlns="http://www.w3.org/2000/svg">
         <path d="M16.6667 7.16643L11.6667 2.78309C11.2084 2.37313 10.615 2.14648 10.0001 2.14648C9.38513 2.14648 8.79176 2.37313 8.33341 2.78309L3.33341 7.16643C3.06872 7.40316 2.8575 7.69356 2.71381 8.0183C2.57012 8.34304 2.49726 8.69466 2.50008 9.04976V16.3331C2.50008 16.9961 2.76347 17.632 3.23231 18.1009C3.70115 18.5697 4.33704 18.8331 5.00008 18.8331H15.0001C15.6631 18.8331 16.299 18.5697 16.7678 18.1009C17.2367 17.632 17.5001 16.9961 17.5001 16.3331V9.04143C17.5017 8.68773 17.4283 8.33771 17.2846 8.0145C17.141 7.69128 16.9304 7.40222 16.6667 7.16643ZM11.6667 17.1664H8.33341V12.9998C8.33341 12.7787 8.42121 12.5668 8.57749 12.4105C8.73377 12.2542 8.94573 12.1664 9.16675 12.1664H10.8334C11.0544 12.1664 11.2664 12.2542 11.4227 12.4105C11.5789 12.5668 11.6667 12.7787 11.6667 12.9998V17.1664ZM15.8334 16.3331C15.8334 16.5541 15.7456 16.7661 15.5893 16.9223C15.4331 17.0786 15.2211 17.1664 15.0001 17.1664H13.3334V12.9998C13.3334 12.3367 13.07 11.7008 12.6012 11.232C12.1323 10.7632 11.4965 10.4998 10.8334 10.4998H9.16675C8.5037 10.4998 7.86782 10.7632 7.39898 11.232C6.93014 11.7008 6.66675 12.3367 6.66675 12.9998V17.1664H5.00008C4.77907 17.1664 4.5671 17.0786 4.41082 16.9223C4.25454 16.7661 4.16675 16.5541 4.16675 16.3331V9.04143C4.1669 8.92311 4.19224 8.80617 4.24109 8.69841C4.28995 8.59065 4.36119 8.49452 4.45008 8.41643L9.45008 4.04143C9.60215 3.90783 9.79766 3.83415 10.0001 3.83415C10.2025 3.83415 10.398 3.90783 10.5501 4.04143L15.5501 8.41643C15.639 8.49452 15.7102 8.59065 15.7591 8.69841C15.8079 8.80617 15.8333 8.92311 15.8334 9.04143V16.3331Z">
         </path>
        </svg>