<svg class="absolute top-0 right-0 text-roseQuartz-10 z-10" fill="none" height="560" viewbox="0 0 192 560" width="192" xmlns="http://www.w3.org/2000/svg">
     <path clip-rule="evenodd" d="M81.7223 708.485C73.098 694.693 65.9422 681.382 55.9999 660.638C50.6605 649.498 48.0184 645.042 46.6063 644.793C43.9585 644.326 13.9586 646.396 6.4585 647.564L0.461504 648.497L1.26219 643.88L2.0627 639.264L10.6128 638.238C15.3148 637.674 24.8043 636.92 31.7 636.563C38.595 636.205 44.286 635.649 44.3459 635.327C44.4057 635.006 42.8522 630.476 40.8939 625.259C36.0075 612.245 24.6343 575.244 20.9112 560.25L17.8439 547.899L20.0502 536.821L22.2567 525.742L25.8817 542.191C32.0723 570.28 43.2206 607.694 51.779 629.103L54.2738 635.345L69.8494 638.34C80.5226 640.393 87.5057 642.241 92.0308 644.213C102.623 648.828 101.993 648.214 101.147 653.092C100.4 657.401 100.34 657.458 97.7976 656.312C87.4877 651.661 76.835 648.157 68.5162 646.678C63.2374 645.74 58.8724 645.232 58.8171 645.551C58.5775 646.933 77.726 684.62 84.3233 695.751L91.5732 707.981L90.5526 714.024C89.9915 717.347 89.3883 720.042 89.213 720.011C89.0387 719.98 85.6668 714.794 81.7223 708.485ZM36.9785 437.924L37.8271 433.03L46.6039 430.727C56.6472 428.09 70.5539 426.454 80.9647 426.683C94.9179 426.991 114.181 433.007 130.376 442.115L137.08 445.884L136.271 450.549L135.462 455.214L129.969 451.821C113.344 441.552 91.9091 435.03 75.9804 435.394C65.3049 435.637 53.077 437.658 43.9555 440.685C40.1554 441.947 36.8408 442.942 36.5887 442.898C36.3367 442.853 36.5117 440.615 36.9785 437.924ZM81.6903 180.095L82.7428 174.026L93.588 165.84C112.441 151.609 119.68 145.713 130.053 136.141C152.774 115.174 169.229 92.2532 176.792 71.0312C178.115 67.3225 179.803 59.2756 180.823 51.8286C182.884 36.7592 181.976 27.7676 177.142 15.3865C171.262 0.324686 153.143 -22.7756 132.066 -42.0822L121.969 -51.3299L122.784 -56.4484C123.758 -62.5673 122.753 -63.0681 137.662 -49.0348C171.159 -17.506 185.965 4.82781 190.06 30.0095C191.445 38.5176 191.406 41.1553 189.723 53.2137C187.511 69.053 184.418 78.295 176.404 92.9938C166.259 111.601 146.229 134.833 125.595 151.927C114.276 161.304 88.401 181.244 83.6169 184.276L80.6376 186.165L81.6903 180.095Z" fill="currentColor" fill-rule="evenodd">
     </path>
    </svg>