<svg class="absolute top-0 left-0 w-auto h-auto text-roseQuartz-10" fill="none" height="772" viewbox="0 0 905 772" width="905" xmlns="http://www.w3.org/2000/svg">
     <path clip-rule="evenodd" d="M187.784 -118.41C169.702 -98.1379 137.106 -57.5995 119.798 -33.8559C91.1643 5.4236 61.7384 55.5743 42.0224 98.6953C31.4427 121.833 16.0008 158.733 13.3831 167.129C11.5926 172.868 11.6156 172.851 -6.51062 181.528L-12.957 184.614L-9.96251 189.456C-7.50383 193.432 -6.38422 193.942 -3.70493 192.301C4.15874 187.486 5.51145 188.555 2.72673 197.384C0.149462 205.547 0.298384 206.291 6.2002 214.7L12.3668 223.487L16.159 209.387C18.245 201.631 21.2245 191.496 22.7818 186.864L25.6098 178.442L53.5307 161.206C77.4832 146.42 84.3715 141.654 102.01 127.662C126.783 108.01 146.115 90.8568 165.22 71.5781C181.175 55.4788 215.242 14.8965 231.094 -6.89112C247.215 -29.0492 289.872 -100.373 302.881 -126.923L314.576 -150.789L309.828 -157.245L305.08 -163.701L290.454 -134.166C226.618 -5.25726 151.254 85.3189 56.7747 146.68C43.4094 155.36 32.2743 162.143 32.0318 161.751C31.7899 161.36 35.3693 151.858 39.9878 140.636C82.2085 38.0296 127.168 -32.3692 209.869 -125.368L232.895 -151.26L215.266 -140.359C198.22 -129.818 197.31 -129.091 187.784 -118.41ZM415.836 44.7739C398.751 85.2282 367.807 145.927 342.726 188.184C313.538 237.36 286.71 273.715 256.009 305.698C223.752 339.298 198.328 360.309 164.138 381.62C151.891 389.252 137.703 397.645 132.61 400.269L123.35 405.041L126.218 409.679L129.087 414.318L140.26 408.482C193.335 380.761 252.423 331.614 295.483 279.371C337.554 228.327 383.308 151.401 422.452 65.8987L433.467 41.8394L428.853 34.3787C426.316 30.2761 423.978 27.0811 423.656 27.2801C423.336 27.4778 419.817 35.3507 415.836 44.7739ZM611.84 385.056C579.395 560.512 569.629 669.952 579.03 752.788C586.986 822.894 608.215 894.934 637.795 952.214C642.013 960.382 645.828 968.455 646.275 970.155C647.065 973.17 647.309 973.108 656.129 967.654L665.176 962.059L659.276 949.707C599.483 824.554 583.774 724.403 600.396 574.344C605.36 529.517 616.905 453.351 628.636 388.027L632.929 364.118L626.135 354.308L619.34 344.5L611.84 385.056ZM310.273 707.32C314.341 713.899 314.851 714.133 325.905 714.466C395.692 716.572 444.121 735.39 458.997 766.181C471.868 792.828 464.278 820.014 429.392 872.21L420.334 885.761L424.32 890.939L428.307 896.118L440.601 878.584C484.622 815.806 493.284 782.326 473.668 750.771C460.984 730.362 444.18 719.53 411.541 710.72C390.833 705.131 363.934 701.42 335.781 700.268C304.95 699.003 305.104 698.961 310.273 707.32ZM884.124 814.264L871.022 834.648L884.167 826.58C896.68 818.9 897.508 818.18 901.392 811.612C905.216 805.149 905.212 804.365 901.351 799.295L897.227 793.88L884.124 814.264Z" fill="currentColor" fill-rule="evenodd">
     </path>
    </svg>