<svg class="w-6 sm:w-8" fill="none" viewbox="0 0 56 48" xmlns="http://www.w3.org/2000/svg">
             <path d="M21.9514 37.4579C21.9514 40.4486 20.8953 42.9533 18.7832 44.972C16.671 46.9907 14.0308 48 10.8626 48C7.84518 48 5.28041 46.8411 3.16825 44.5234C1.05608 42.2056 0 39.2897 0 35.7757C0 33.2336 0.565758 30.4299 1.69727 27.3645C2.90423 24.2991 4.45063 21.1963 6.33649 18.0561C8.29779 14.9159 10.4854 11.8131 12.8993 8.74766C15.3886 5.60748 17.878 2.69159 20.3673 0L23.4224 2.46729C20.0278 6.42991 17.199 10.4299 14.936 14.4673C12.673 18.5047 11.3152 22.4673 10.8626 26.3551C13.8799 26.5794 16.4824 27.7009 18.67 29.7196C20.8576 31.7383 21.9514 34.3178 21.9514 37.4579ZM54.4259 37.4579C54.4259 40.4486 53.3699 42.9533 51.2577 44.972C49.1455 46.9907 46.5053 48 43.3371 48C40.3197 48 37.7549 46.8411 35.6428 44.5234C33.5306 42.2056 32.4745 39.2897 32.4745 35.7757C32.4745 33.2336 33.0403 30.4299 34.1718 27.3645C35.3787 24.2991 36.9251 21.1963 38.811 18.0561C40.7723 14.9159 42.9599 11.8131 45.3738 8.74766C47.8631 5.60748 50.3525 2.69159 52.8418 0L55.7838 2.46729C52.3892 6.42991 49.5604 10.4299 47.2974 14.4673C45.1098 18.5047 43.7897 22.4673 43.3371 26.3551C46.3545 26.5794 48.9569 27.7009 51.1445 29.7196C53.3321 31.7383 54.4259 34.3178 54.4259 37.4579Z" fill="#BAA8B4" fill-opacity="0.5">
             </path>
            </svg>