<svg class="w-4 sm:w-5" fill="none" viewbox="0 0 16 16" xmlns="http://www.w3.org/2000/svg">
         <path d="M12.667 4.66683H10.667V4.00016C10.667 3.29292 10.386 2.61464 9.88594 2.11454C9.38585 1.61445 8.70757 1.3335 8.00033 1.3335C7.29308 1.3335 6.6148 1.61445 6.11471 2.11454C5.61461 2.61464 5.33366 3.29292 5.33366 4.00016V4.66683H3.33366C3.15685 4.66683 2.98728 4.73707 2.86225 4.86209C2.73723 4.98712 2.66699 5.15669 2.66699 5.3335V12.6668C2.66699 13.1973 2.87771 13.706 3.25278 14.081C3.62785 14.4561 4.13656 14.6668 4.66699 14.6668H11.3337C11.8641 14.6668 12.3728 14.4561 12.7479 14.081C13.1229 13.706 13.3337 13.1973 13.3337 12.6668V5.3335C13.3337 5.15669 13.2634 4.98712 13.1384 4.86209C13.0134 4.73707 12.8438 4.66683 12.667 4.66683ZM6.66699 4.00016C6.66699 3.64654 6.80747 3.3074 7.05752 3.05735C7.30756 2.80731 7.6467 2.66683 8.00033 2.66683C8.35395 2.66683 8.69309 2.80731 8.94313 3.05735C9.19318 3.3074 9.33366 3.64654 9.33366 4.00016V4.66683H6.66699V4.00016ZM12.0003 12.6668C12.0003 12.8436 11.9301 13.0132 11.8051 13.1382C11.68 13.2633 11.5105 13.3335 11.3337 13.3335H4.66699C4.49018 13.3335 4.32061 13.2633 4.19559 13.1382C4.07056 13.0132 4.00033 12.8436 4.00033 12.6668V6.00016H5.33366V6.66683C5.33366 6.84364 5.4039 7.01321 5.52892 7.13823C5.65395 7.26326 5.82351 7.3335 6.00033 7.3335C6.17714 7.3335 6.34671 7.26326 6.47173 7.13823C6.59675 7.01321 6.66699 6.84364 6.66699 6.66683V6.00016H9.33366V6.66683C9.33366 6.84364 9.4039 7.01321 9.52892 7.13823C9.65394 7.26326 9.82351 7.3335 10.0003 7.3335C10.1771 7.3335 10.3467 7.26326 10.4717 7.13823C10.5968 7.01321 10.667 6.84364 10.667 6.66683V6.00016H12.0003V12.6668Z" fill="currentColor">
         </path>
        </svg>