<svg class="absolute left-0 h-full text-roseQuartz-10 z-10" fill="none" height="560" viewbox="0 0 1010 560" width="1010" xmlns="http://www.w3.org/2000/svg">
     <path clip-rule="evenodd" d="M-75.1493 -29.1814C-74.0928 -14.832 -69.5908 13.6437 -65.7571 30.2125C-59.416 57.6228 -46.5346 92.181 -31.7121 121.552C-23.7592 137.312 -10.1157 162.358 -6.41007 168.002C-3.87822 171.86 -3.87375 171.847 -10.3902 178.627L-12.7072 181.038L-7.5484 184.017C-3.31268 186.462 -2.23027 186.726 -1.50038 185.49C0.643361 181.863 2.24635 182.478 6.12123 188.415C9.70177 193.903 10.2855 194.38 19.7147 199.509L29.5677 204.869L22.9395 195.427C19.2942 190.235 14.7001 183.433 12.7318 180.312L9.15065 174.638L16.6702 161.668C23.1212 150.541 24.6418 147.005 27.3729 136.784C31.2092 122.428 33.0204 110.039 33.2965 96.2758C33.5278 84.7822 29.9844 56.1874 26.446 40.9854C22.8475 25.5249 5.06979 -23.6732 -3.47249 -41.8104L-11.1513 -58.1143L-18.5365 -62.039L-25.9208 -65.9632L-16.5213 -45.7772C24.5063 42.3273 32.8654 106.107 9.39775 151.982C6.07781 158.472 3.01963 163.585 2.6019 163.344C2.18517 163.103 -1.59435 156.678 -5.79569 149.066C-44.2146 79.4662 -59.8463 30.7307 -64.8589 -35.0819L-66.2544 -53.405L-70.9899 -45.2029C-75.5685 -37.2725 -75.7059 -36.7416 -75.1493 -29.1814ZM183.989 63.3771C198.842 90.8451 217.566 132.385 228.227 161.521C240.634 195.429 246.285 220.818 246.493 243.59C246.709 267.514 243.32 282.797 234.246 298.814C230.994 304.551 226.936 310.903 225.226 312.93L222.118 316.614L227.059 319.467L232.001 322.32L235.7 317.823C253.274 296.46 260.944 260.735 255.849 223.973C250.87 188.054 231.525 135.008 202.168 76.7663L193.907 60.3778L185.959 55.789C181.589 53.2656 177.942 51.3228 177.855 51.4725C177.769 51.6213 180.529 56.9788 183.989 63.3771ZM536.825 273.558C629.188 390.131 693.825 462.201 754.015 515.719C804.954 561.013 866.057 606.755 923.16 642.344C931.302 647.419 939.113 652.457 940.519 653.54C943.01 655.46 943.133 655.404 945.502 651.301L947.933 647.091L935.94 639.387C814.419 561.33 738.734 496.891 652.274 397.874C626.446 368.295 584.647 317.847 550.025 274.466L537.352 258.589L526.413 252.6L515.475 246.612L536.825 273.558ZM544.142 502.535C551.15 506.582 551.644 506.703 559.277 506.242C607.464 503.33 652.193 512.644 682.202 531.839C708.169 548.449 720.761 566.669 731.31 602.899L734.049 612.305L740.091 615.441L746.134 618.578L742.976 606.373C731.672 562.672 715.706 540.276 682.02 520.874C660.235 508.325 641.917 502.284 614.29 498.535C596.762 496.157 576.303 495.386 556.667 496.363C535.161 497.431 535.236 497.394 544.142 502.535ZM998.678 537.125L1003.15 551.242L1006.72 545.166C1010.12 539.381 1010.2 538.861 1008.54 534.332C1006.9 529.877 1006.39 529.366 1000.5 526.291L994.208 523.009L998.678 537.125Z" fill="currentColor" fill-rule="evenodd">
     </path>
    </svg>