<svg class="absolute top-0 right-0 w-auto h-auto text-roseQuartz-10" height="195" viewbox="0 0 630 195" width="630" xmlns="http://www.w3.org/2000/svg">
     <path clip-rule="evenodd" d="M751.097 170.452C708.347 155.454 670.733 143.783 615.891 128.499C586.441 120.29 573.079 115.791 568.384 112.504C559.579 106.339 468.268 33.4432 446.185 14.9499L428.527 0.163061L425.732 3.99772L422.938 7.83157L448.463 28.7874C462.5 40.3117 491.269 63.411 512.394 80.1176C533.515 96.8227 550.65 110.719 550.468 110.996C550.286 111.272 540.238 109.418 528.141 106.876C497.954 100.532 419.999 88.5438 391.175 85.8127L367.431 83.5617L361.615 93.4472L355.798 103.333L385.985 105.226C437.533 108.46 515.26 119.737 566.542 131.422L581.492 134.828L633.568 170.989C669.253 195.769 693.18 211.771 709.573 221.821C747.944 245.345 745.271 244.085 748.224 240.034C750.833 236.455 750.712 236.289 741.458 230.659C703.928 207.827 666.642 183.698 638.967 164.335C621.407 152.047 607.193 141.776 607.386 141.511C608.222 140.364 711.245 170.738 744.614 181.971L781.282 194.315L785.026 189.362C787.086 186.638 788.292 184.074 787.709 183.666C787.13 183.26 770.651 177.311 751.097 170.452ZM301.05 175.051L298.087 179.115L322.854 201.145C351.194 226.354 392.746 260.425 425.521 285.329C469.448 318.707 536.505 362.473 597.526 397.59L622.784 412.127L625.608 408.253L628.432 404.378L607.386 392.592C543.69 356.923 469.272 308.154 419.946 269.754C386.887 244.018 351.018 213.818 326.005 190.661C315.585 181.014 306.376 172.642 305.538 172.055C304.7 171.469 302.679 172.816 301.05 175.051ZM144.965 389.186L141.29 394.227L165.77 423.659C208.324 474.824 224.168 494.65 245.581 523.52C292.49 586.764 317.585 635.767 316.866 662.718C316.741 667.429 312.786 674.816 307.428 680.348C296.581 691.538 283.434 693.082 254.138 686.601C218.5 678.719 135.422 644.776 47.4554 602.158L5.31975 581.744L1.99296 585.819C-1.98384 590.691 -5.69706 588.485 56.9593 618.476C197.726 685.854 269.578 712.158 311.25 711.565C325.331 711.366 328.237 710.182 336.811 701.147C348.07 689.276 349.01 678.02 340.842 652.69C330.503 620.624 294.599 562.907 249.766 506.278C225.174 475.216 167.239 404.825 155.777 392.081L148.639 384.145L144.965 389.186Z" fill="currentColor" fill-rule="evenodd">
     </path>
    </svg>