<svg class="w-auto h-full text-roseQuartz-10" fill="none" viewbox="0 0 678 1050" xmlns="http://www.w3.org/2000/svg">
       <path clip-rule="evenodd" d="M32.3233 -19.0821C25.9827 -6.26691 15.4624 20.3307 10.3821 36.3957C1.97664 62.9719 -4.43112 98.8486 -6.55504 131.22C-7.6951 148.589 -8.64581 176.68 -8.31897 183.316C-8.09642 187.851 -8.08631 187.843 -17.0969 190.495L-20.3012 191.439L-17.3823 196.494C-14.9857 200.645 -14.1909 201.396 -12.9408 200.69C-9.27114 198.621 -8.20745 199.925 -7.88331 206.895C-7.5853 213.337 -7.32549 214.029 -1.83132 223L3.90958 232.374L2.99469 221.064C2.49163 214.844 1.98777 206.784 1.8761 203.154L1.67096 196.553L14.6681 189.079C25.8181 182.668 28.9074 180.374 36.4106 172.935C46.9492 162.488 54.7586 152.744 61.9458 141.078C67.9483 131.336 79.3507 105.101 83.9939 90.3512C88.7163 75.3505 98.3191 24.5473 100.154 4.85394L101.804 -12.8488L97.4544 -19.7956L93.105 -26.7415L90.97 -4.87584C81.6532 90.5609 56.6114 149.298 13.324 177.248C7.20042 181.202 1.99623 184.103 1.75987 183.693C1.52408 183.285 1.52828 175.943 1.77034 167.379C3.979 89.0725 15.1881 39.7068 44.1257 -19.1501L52.1824 -35.5366L43.9803 -30.8011C36.0499 -26.2225 35.6639 -25.8339 32.3233 -19.0821ZM207.758 185.958C206.622 216.712 201.698 261.409 196.124 291.56C189.639 326.649 181.662 351.158 170.34 370.783C158.444 391.399 147.821 402.858 131.952 412.19C126.267 415.531 119.58 419.009 117.091 419.918L112.565 421.569L115.361 426.412L118.157 431.254L123.6 429.193C149.455 419.4 174.073 392.491 188.269 358.501C202.138 325.291 212.341 270.428 216.583 206.255L217.777 188.197L213.28 180.408C210.807 176.125 208.661 172.691 208.512 172.777C208.363 172.863 208.023 178.795 207.758 185.958ZM404.128 537.289C424.449 682.032 443.472 775.172 468.05 850.249C488.85 913.789 518.138 982.641 549.124 1040.85C553.542 1049.15 557.695 1057.26 558.353 1058.87C559.519 1061.72 559.653 1061.73 563.757 1059.37L567.966 1056.94L561.574 1044.51C496.805 918.65 464.456 826.695 440.332 699.868C433.125 661.981 422.764 598.455 414.987 544.469L412.14 524.711L405.786 514.27L399.431 503.831L404.128 537.289ZM294.769 737.156C298.734 744.024 299.096 744.368 305.874 747.674C348.658 768.549 382.304 798.229 398.339 829.24C412.214 856.076 413.809 877.804 404.558 913.983L402.156 923.375L405.752 928.995L409.349 934.615L412.806 922.62C425.183 879.669 422.803 852.723 403.721 819.751C391.38 798.426 378.725 784.361 356.932 767.748C343.104 757.208 325.953 746.625 308.624 737.938C289.647 728.424 289.73 728.428 294.769 737.156ZM667.006 987.266L663.71 1001.54L669.839 998.058C675.674 994.747 676.012 994.343 676.869 989.653C677.714 985.038 677.533 984.351 674.037 978.859L670.303 972.995L667.006 987.266Z" fill="currentColor" fill-rule="evenodd">
       </path>
      </svg>