<svg class="size-8 -rotate-12" fill="none" height="195" viewbox="0 0 194 195" width="194" xmlns="http://www.w3.org/2000/svg">
            <path d="M102.543 155.592C98.1048 155.201 93.6657 154.558 89.283 153.567C84.9003 152.57 80.5919 151.193 76.4235 149.438C72.0046 147.574 67.8115 145.186 63.834 142.542L62.8375 141.881L61.8682 141.179C61.228 140.704 60.5618 140.262 59.9458 139.754L58.0687 138.267L56.2557 136.701C53.8733 134.572 51.6207 132.291 49.5328 129.859C47.4669 127.408 45.5621 124.816 43.8409 122.099C42.1153 119.382 40.6413 116.504 39.3415 113.558C34.2067 101.744 32.5303 88.3707 34.9453 75.5863C35.6785 71.6493 36.8654 67.8085 38.334 64.1017C39.8119 60.3961 41.6102 56.8207 43.7423 53.4671C45.8589 50.1042 48.2404 46.9186 50.8515 43.9401C53.4905 40.9873 56.3464 38.2395 59.3843 35.7141C62.4116 33.1735 65.6736 30.9263 69.0595 28.8998C72.4504 26.881 75.9669 25.0974 79.6042 23.6115C83.2341 22.112 86.9537 20.8516 90.7298 19.8191C94.513 18.8147 98.3486 18.0422 102.209 17.4773C106.871 16.8013 111.635 16.6677 116.255 16.8334C117.362 16.8865 118.369 16.9649 119.284 17.0858C120.198 17.2271 121.018 17.3939 121.752 17.5815C122.487 17.7615 123.134 17.9879 123.702 18.2347C124.27 18.4776 124.759 18.7346 125.178 19.0014C126.398 19.7789 126.322 20.5002 125.209 21.0269C124.652 21.2901 123.835 21.5046 122.785 21.6521C121.735 21.8177 120.45 21.9458 118.953 21.9933C115.162 22.1692 111.042 22.3466 107.147 22.662C98.1859 23.381 89.3207 25.441 81.0975 28.9834C76.9885 30.7533 73.0412 32.8873 69.3598 35.3861C65.675 37.8858 62.2397 40.7483 59.13 43.9143C55.6895 47.4134 52.6019 51.452 49.8223 55.2843C47.6056 58.3538 45.6968 61.6593 44.1442 65.1284C42.5686 68.5911 41.4518 72.2474 40.6557 75.9597C39.1014 83.4084 39.1151 91.1677 40.3761 98.6851C40.8656 101.477 41.531 104.245 42.4029 106.953C43.3009 109.652 44.3739 112.292 45.621 114.85C46.9028 117.388 48.3521 119.841 49.9494 122.198C51.5749 124.537 53.3539 126.766 55.2488 128.893C62.0686 136.426 70.6958 142.349 80.2114 145.978C84.9784 147.793 89.9758 149.026 95.0542 149.843C100.136 150.657 105.306 151.043 110.496 151.161C118.781 151.327 126.657 151.236 133.747 151.89C137.006 152.192 136.891 153.495 133.165 154.055C127.891 154.848 122.31 155.466 116.699 155.755C112.085 155.996 107.312 155.841 102.591 155.508C102.576 155.537 102.562 155.563 102.543 155.592Z" fill="currentColor">
            </path>
            <path d="M112.502 134.761C126.981 141.022 142.773 146.172 157.19 150.53C142.631 154.739 130.773 165.168 119.696 175.556C124.208 172.039 127.753 167.251 131.275 162.734C133.823 159.466 134.724 155.439 133.78 151.922C132.778 148.189 126.696 144.01 123.452 141.932C119.753 139.562 116.054 137.192 112.354 134.822" fill="currentColor">
            </path>
            <path d="M130.118 142.927C131.139 143.788 132.142 144.702 133.104 145.736C134.06 146.781 135.002 147.914 135.766 149.45L136.04 150.042C136.127 150.243 136.197 150.484 136.272 150.705L136.378 151.043L136.428 151.212L136.459 151.356L136.579 151.935C136.711 152.708 136.8 153.487 136.797 154.26C136.823 155.809 136.563 157.323 136.131 158.757C135.653 160.271 134.966 161.703 134.099 162.992C133.682 163.635 133.156 164.285 132.781 164.762C132.373 165.279 131.97 165.803 131.568 166.332C130.083 168.293 128.555 170.279 126.885 172.205C125.217 174.131 123.387 175.994 121.323 177.665C120.182 178.59 118.512 178.409 117.592 177.262C116.725 176.18 116.836 174.624 117.81 173.675L117.884 173.604C121.198 170.396 124.569 167.2 128.107 164.139C131.638 161.073 135.372 158.17 139.357 155.568L140.332 154.931L141.331 154.325C142.001 153.927 142.652 153.502 143.344 153.135L145.399 152.004L147.507 150.956C150.347 149.609 153.298 148.458 156.338 147.552L156.302 153.498C150.864 151.861 145.434 150.164 140.027 148.37C134.622 146.572 129.236 144.689 123.894 142.658C121.427 141.73 119.028 140.546 116.698 139.366C114.468 138.225 113.267 136.91 112.73 135.636C111.953 133.777 113.881 132.99 117.213 133.995C119.326 134.63 121.554 135.516 123.645 136.414C133.279 140.545 143.268 143.774 153.428 146.394C154.958 146.789 156.532 147.161 158.073 147.581C159.69 148.022 160.646 149.698 160.207 151.324C159.937 152.323 159.204 153.07 158.303 153.396L158.037 153.49C157.442 153.701 156.848 153.9 156.255 154.082C155.959 154.176 155.66 154.252 155.367 154.348C155.076 154.446 154.784 154.539 154.493 154.625C150.386 155.833 146.448 157.768 142.756 160.132C139.049 162.483 135.538 165.186 132.038 167.933C128.346 170.848 124.835 174.063 121.325 177.311L118.232 173.658C119.655 172.551 121.011 171.313 122.309 169.972C124.314 167.914 126.183 165.636 128.063 163.302L129.48 161.542C129.609 161.386 129.69 161.273 129.792 161.142C129.889 161.015 129.992 160.891 130.079 160.757L130.352 160.361L130.602 159.953C131.258 158.856 131.724 157.655 131.972 156.422C132.206 155.189 132.229 153.922 131.971 152.723C131.915 152.389 131.826 152.211 131.761 151.967C131.632 151.721 131.551 151.473 131.376 151.215C131.092 150.699 130.671 150.179 130.249 149.668C129.367 148.649 128.312 147.686 127.208 146.771C126.098 145.856 124.927 144.987 123.72 144.153C122.764 143.492 121.782 142.824 120.843 142.135C119.904 141.449 118.997 140.75 118.128 140.037C116.391 138.609 114.808 137.12 113.426 135.548C112.157 134.099 112.95 133.076 114.912 133.989C117.689 135.28 120.512 136.775 123.266 138.348C123.832 138.671 124.394 139.009 124.953 139.356C125.524 139.712 126.103 140.09 126.671 140.481C127.812 141.264 128.934 142.102 130.045 142.98C130.069 142.962 130.091 142.946 130.118 142.927Z" fill="currentColor">
            </path>
           </svg>