<svg class="absolute top-0 right-0 w-auto h-auto md:w-[24rem] text-roseQuartz-10" height="1234" viewbox="0 0 405 1234" width="405" xmlns="http://www.w3.org/2000/svg">
     <path clip-rule="evenodd" d="M419.174 16.6542C416.646 16.1571 404.038 13.8389 391.156 11.5021C378.273 9.16525 360.106 5.71982 350.784 3.84522C341.462 1.97159 333.079 0.447988 332.154 0.460085C330.705 0.47969 330.31 1.09332 329.287 4.9097L328.101 9.3375L337.822 11.2488C343.169 12.3005 358.077 15.0992 370.95 17.4688C383.824 19.8385 401.606 23.1579 410.466 24.8467L426.576 27.9168L427.826 23.2494L429.077 18.582L426.423 18.0707C424.964 17.7894 421.701 17.1523 419.174 16.6542ZM288.029 158.889C287.338 161.465 286.957 163.842 287.181 164.171C288.57 166.206 323.122 191.899 345.356 207.428C350.528 211.041 358.926 216.946 364.019 220.551L373.278 227.104L374.382 222.151L375.485 217.199L353.43 201.717C329.887 185.192 306.609 168.115 295.868 159.49L289.284 154.203L288.029 158.889ZM260.952 260.046C259.523 265.482 259.54 265.702 261.725 269.829C268.993 283.56 274.599 307.35 275.24 327.183C275.566 337.263 274.924 350.646 273.813 356.926L273.377 359.397L255.079 354.77L236.782 350.143L235.452 355.106L234.122 360.07L252.63 364.433L271.138 368.795L270.851 371.511C270.411 375.678 262.814 398.24 258.427 408.408C245.994 437.223 225.761 466.831 204.587 487.189L198.49 493.053L196.655 499.899L194.82 506.747L199.827 502.288C218.495 485.659 237.448 462.351 249.982 440.609C261.047 421.417 267.962 405.392 274.61 383.539L278.686 370.137L287.98 371.912C296.339 373.508 316.22 376.544 328.109 378.04L332.609 378.606L333.867 373.909C334.559 371.327 334.883 369.148 334.587 369.069C334.29 368.989 331.442 368.679 328.259 368.379C323.234 367.905 307.597 365.483 286.376 361.892L280.227 360.851L281.177 354.05C284.267 331.933 281.919 303.877 275.095 281.369C273.199 275.113 264.021 254.935 262.933 254.63C262.647 254.55 261.756 256.987 260.952 260.046ZM133.367 736.643L132.249 741.654L141.576 751.287C151.917 761.965 152.073 762.131 177.765 789.831C187.77 800.617 199.615 813.593 204.089 818.665L212.224 827.889L213.604 822.736L214.985 817.585L211.125 813.242C205.706 807.147 182.446 781.76 168.367 766.575C157.409 754.755 135.333 731.86 134.742 731.701C134.6 731.663 133.981 733.887 133.367 736.643ZM90.031 897.867L88.3788 904.075L92.403 912.064C108.911 944.833 122.733 982.617 127.18 1007.13C129.692 1020.98 130.71 1039.44 129.699 1052.84C127.668 1079.78 119.82 1102.28 105.054 1123.5C100.45 1130.11 86.2018 1147.26 80.5309 1153.01L78.5282 1155.04L73.1404 1150.64C68.2607 1146.65 43.0384 1123.65 35.4154 1116.24L32.3161 1113.22L30.9623 1118.28L29.6088 1123.34L42.26 1135.14C49.2177 1141.63 58.6543 1150.16 63.2289 1154.1C67.8039 1158.03 71.4691 1161.51 71.3748 1161.84C70.9895 1163.17 57.6783 1174.88 32.564 1195.98C17.9694 1208.24 5.41042 1218.96 4.6544 1219.8C3.78285 1220.77 2.75872 1223.57 1.85683 1227.46L0.433606 1233.6L33.4028 1205.65C51.5359 1190.28 67.9904 1176.1 69.9682 1174.13C71.9464 1172.16 74.4782 1169.63 75.596 1168.49L77.6281 1166.42L95.3361 1180.14C105.075 1187.69 113.281 1193.92 113.569 1193.99C113.858 1194.06 114.647 1192.05 115.323 1189.53L116.551 1184.94L100.536 1172.45C85.7605 1160.93 84.6246 1159.86 85.8553 1158.5C106.137 1136.17 115.22 1123.24 124.367 1103.71C129.25 1093.28 134.671 1073.58 136.044 1061.27C141.148 1015.48 130.78 972.005 99.5339 908.192C96.359 901.708 93.2942 895.336 92.7223 894.031L91.6835 891.659L90.031 897.867Z" fill="currentColor" fill-rule="evenodd">
     </path>
    </svg>