<svg class="absolute top-0 left-0 w-auto h-auto text-roseQuartz-10" fill="none" height="943" viewbox="0 0 208 943" width="208" xmlns="http://www.w3.org/2000/svg">
     <path clip-rule="evenodd" d="M-141.052 -49.8821C-126.261 -28.4859 -113.048 -7.24397 -93.5592 26.4706C-83.0934 44.5739 -78.4456 51.561 -77.0344 51.3125C-74.3882 50.8463 -48.109 31.8213 -41.8661 25.8509L-36.874 21.0784L-35.2807 30.1051L-33.6877 39.1298L-40.9583 45.365C-44.9568 48.794 -53.2194 54.9974 -59.3195 59.1491C-65.4184 63.3024 -70.3217 67.2159 -70.2142 67.8474C-70.1071 68.4771 -66.4135 76.1522 -62.0063 84.9033C-51.0097 106.738 -22.0399 170.088 -11.107 196.207L-2.10107 217.72L1.4622 239.522L5.0258 261.326L-6.54984 232.44C-26.3165 183.116 -55.2893 118.881 -73.8529 83.2254L-79.2646 72.8303L-94.9558 75.1072C-105.708 76.6681 -112.997 76.7446 -118.11 75.349C-130.078 72.0837 -129.195 72.9117 -130.878 63.375C-132.365 54.9509 -132.34 54.814 -129.448 55.6698C-117.719 59.1448 -106.255 60.3058 -97.9356 58.8638C-92.6565 57.9475 -88.426 56.6902 -88.536 56.0669C-89.0128 53.3658 -125.408 -7.33576 -137.016 -24.7881L-149.77 -43.9645L-151.881 -55.765C-153.041 -62.2542 -153.847 -67.5907 -153.672 -67.6215C-153.498 -67.6522 -147.818 -59.6706 -141.052 -49.8821ZM35.7935 432.76L37.4822 442.326L30.648 451.063C22.8281 461.062 10.9865 471.145 1.38995 475.977C-11.4718 482.453 -32.0409 480.952 -51.371 472.128L-59.3722 468.476L-60.9819 459.356L-62.5919 450.235L-55.8823 453.796C-35.5765 464.572 -12.7757 465.92 1.54753 457.192C11.1472 451.343 21.2665 441.391 28.0505 431.128C30.8766 426.852 33.3943 423.318 33.6462 423.273C33.8981 423.229 34.8646 427.497 35.7935 432.76ZM124.768 936.827L126.863 948.692L121.104 969.458C111.093 1005.56 107.466 1020.23 102.835 1043.34C92.6898 1093.98 89.2348 1145.1 93.0216 1188.55C93.6831 1196.14 96.193 1212.03 99.0106 1226.45C104.714 1255.63 110.063 1271.96 120.693 1292.64C133.625 1317.8 161.746 1351.78 190.652 1377.18L204.499 1389.35L206.331 1399.32C208.523 1411.24 209.69 1411.66 189.053 1392.99C142.688 1351.04 117.97 1316.82 101.574 1271.86C96.0332 1256.67 94.7412 1251.73 90.2084 1228.36C84.2553 1197.66 82.4236 1178.84 82.3279 1147.34C82.2068 1107.47 88.7613 1053.96 98.9541 1011.61C104.545 988.384 118.079 938.073 120.911 929.993L122.674 924.959L124.768 936.827Z" fill="currentColor" fill-rule="evenodd">
     </path>
    </svg>