<svg class="flex md:hidden h-[1.125rem] xs:h-5 text-inherit transition duration-none cursor-pointer" fill="inherit" id="moblogo" viewbox="108.36000061035156 20.709999084472656 144.12998962402344 24.85000228881836" xmlns="http://www.w3.org/2000/svg">
      <g>
       <path d="m123.82,26.45c1.2,0,2.21.28,3.04.83s1.47,1.3,1.91,2.25.66,2.01.66,3.19v6.66h-1.61v-6.42c0-.88-.15-1.7-.45-2.46-.3-.75-.76-1.36-1.37-1.82-.61-.46-1.36-.69-2.26-.69s-1.6.22-2.2.66-1.05,1.03-1.37,1.77c-.31.74-.47,1.55-.47,2.43v6.53h-1.61v-6.5c0-.9-.16-1.72-.47-2.46-.31-.74-.78-1.33-1.39-1.77s-1.36-.66-2.25-.66-1.65.23-2.24.69c-.59.46-1.03,1.06-1.33,1.81-.29.75-.44,1.56-.44,2.44v6.45h-1.61v-6.63c0-1.18.22-2.24.65-3.2.43-.95,1.06-1.71,1.89-2.26.82-.55,1.82-.83,2.98-.83,1.04,0,1.95.22,2.72.65.77.43,1.38,1.02,1.82,1.75.44.74.68,1.58.72,2.54h-.36c.05-.95.29-1.8.71-2.54.42-.74,1.01-1.32,1.74-1.75.74-.43,1.6-.65,2.59-.65Z" fill="currentColor">
       </path>
       <path d="m138.56,39.63c-1.21,0-2.3-.3-3.26-.9-.96-.6-1.73-1.4-2.29-2.39-.56-1-.85-2.1-.85-3.32s.29-2.29.87-3.29c.58-1,1.37-1.79,2.37-2.38,1-.59,2.12-.88,3.37-.88s2.37.29,3.37.87c1,.58,1.79,1.36,2.38,2.35.59.99.88,2.1.88,3.33v6.34h-1.53v-4.84l.68-.99c0,1.13-.26,2.15-.78,3.07-.52.92-1.23,1.65-2.12,2.2-.89.55-1.92.82-3.08.82Zm.21-1.53c.94,0,1.79-.23,2.55-.69.76-.46,1.37-1.07,1.81-1.83s.66-1.6.66-2.52-.22-1.76-.66-2.52-1.04-1.37-1.81-1.83c-.76-.46-1.61-.69-2.55-.69s-1.78.23-2.54.69c-.75.46-1.35,1.07-1.79,1.83-.44.76-.66,1.6-.66,2.52s.22,1.76.66,2.52c.44.76,1.04,1.37,1.79,1.83.75.46,1.6.69,2.54.69Z" fill="currentColor">
       </path>
       <path d="m151.17,39.37h-1.61v-18.43h1.61v18.43Zm-.31-5.64v-1.43h2.76v1.43h-2.76Zm9.44,5.64h-2.11l-4.5-4.52c-.52-.52-.78-1.12-.78-1.79,0-.61.28-1.19.83-1.74l4.55-4.55h2.03l-5.51,5.51c-.12.12-.22.25-.3.38-.08.13-.12.26-.12.4,0,.12.04.25.12.38.08.13.18.26.3.4l5.49,5.54Z" fill="currentColor">
       </path>
       <path d="m168.13,39.69c-1.23,0-2.33-.3-3.29-.91s-1.72-1.42-2.27-2.43c-.56-1.01-.83-2.14-.83-3.37s.3-2.33.9-3.34c.6-1.01,1.41-1.82,2.43-2.42,1.02-.6,2.18-.9,3.46-.9s2.43.29,3.46.87c1.02.58,1.83,1.37,2.43,2.38s.9,2.14.9,3.41v6.4h-2.44v-4.76l.88-.68c0,1.08-.24,2.05-.71,2.91s-1.13,1.56-1.97,2.07c-.84.51-1.82.77-2.93.77Zm.39-2.44c.8,0,1.52-.19,2.16-.57.64-.38,1.14-.9,1.51-1.55.36-.65.54-1.36.54-2.12s-.18-1.49-.54-2.13c-.37-.64-.87-1.16-1.51-1.55-.64-.39-1.36-.58-2.16-.58s-1.51.19-2.15.58c-.63.39-1.13.91-1.51,1.55-.37.64-.56,1.35-.56,2.13s.19,1.47.56,2.12.88,1.17,1.51,1.55c.63.38,1.35.57,2.15.57Z" fill="currentColor">
       </path>
       <path d="m181.05,39.37h-2.57v-7.59c0-1.04.2-1.97.58-2.78.39-.81.96-1.46,1.72-1.92.75-.47,1.69-.7,2.79-.7.42,0,.82.04,1.21.12.39.08.75.19,1.08.35v2.55c-.31-.19-.65-.33-1-.42-.36-.09-.71-.13-1.05-.13-.85,0-1.52.27-2.01.82s-.74,1.29-.74,2.22v7.49Z" fill="currentColor">
       </path>
       <path d="m197.19,28.87h-9.98v-2.24h9.98v2.24Zm-2.6,10.84c-1.04,0-1.92-.21-2.65-.62-.73-.42-1.28-.99-1.65-1.73-.37-.74-.56-1.59-.56-2.56v-11.47h2.57v11.39c0,.83.23,1.48.69,1.95.46.47,1.07.7,1.83.7.42,0,.84-.07,1.26-.21s.79-.32,1.11-.55v2.37c-.33.21-.73.38-1.2.52-.47.14-.94.21-1.4.21Z" fill="currentColor">
       </path>
       <path d="m202.55,24.11c-.29,0-.57-.07-.83-.22-.26-.15-.47-.35-.62-.61-.16-.26-.23-.55-.23-.86s.08-.6.23-.86c.16-.26.36-.47.62-.62.26-.16.54-.23.83-.23.31,0,.59.08.85.23.25.16.45.36.6.62.15.26.22.55.22.86s-.07.6-.22.86c-.15.26-.35.46-.6.61-.25.15-.53.22-.85.22Zm-1.27,2.52h2.57v12.74h-2.57v-12.74Z" fill="currentColor">
       </path>
       <path d="m212.09,39.66c-1.18,0-2.21-.23-3.11-.7-.89-.47-1.58-1.18-2.07-2.13l1.98-1.09c.33.64.75,1.09,1.26,1.35.51.26,1.12.39,1.83.39.5,0,.94-.06,1.33-.19.38-.13.68-.33.91-.59.23-.26.34-.57.34-.94,0-.45-.18-.79-.53-1.01-.36-.23-.81-.4-1.35-.53-.55-.13-1.14-.26-1.77-.39-.63-.13-1.22-.33-1.77-.59-.55-.26-1-.62-1.35-1.09-.36-.47-.53-1.1-.53-1.9,0-.75.2-1.41.61-1.99.41-.58.97-1.04,1.69-1.38.72-.34,1.54-.51,2.46-.51.8,0,1.5.11,2.12.34.62.23,1.14.53,1.59.92.44.39.8.83,1.08,1.31l-1.98,1.12c-.28-.55-.66-.94-1.14-1.17-.49-.23-1.02-.34-1.61-.34-.4,0-.77.06-1.11.19s-.61.32-.82.56c-.21.24-.31.54-.31.88,0,.42.18.74.53.96.35.23.81.41,1.35.55s1.13.28,1.77.42c.63.14,1.22.33,1.77.58.55.25,1,.61,1.35,1.08.36.47.53,1.11.53,1.92s-.23,1.5-.69,2.09c-.46.6-1.08,1.06-1.85,1.38-.77.32-1.61.48-2.51.48Z" fill="currentColor">
       </path>
       <path d="m228.11,28.87h-9.98v-2.24h9.98v2.24Zm-2.6,10.84c-1.04,0-1.92-.21-2.65-.62-.73-.42-1.28-.99-1.65-1.73-.37-.74-.56-1.59-.56-2.56v-11.47h2.57v11.39c0,.83.23,1.48.69,1.95.46.47,1.07.7,1.83.7.42,0,.84-.07,1.26-.21s.79-.32,1.11-.55v2.37c-.33.21-.73.38-1.2.52-.47.14-.94.21-1.4.21Z" fill="currentColor">
       </path>
       <path d="m233.46,39.37h-2.57v-7.59c0-1.04.2-1.97.58-2.78.39-.81.96-1.46,1.72-1.92.75-.47,1.69-.7,2.79-.7.42,0,.82.04,1.21.12.39.08.75.19,1.08.35v2.55c-.31-.19-.65-.33-1-.42-.36-.09-.71-.13-1.05-.13-.85,0-1.52.27-2.01.82s-.74,1.29-.74,2.22v7.49Z" fill="currentColor">
       </path>
       <path d="m245.86,45.56c-1.35,0-2.56-.29-3.63-.86-1.07-.57-1.88-1.42-2.46-2.55l2.13-1.17c.38.69.91,1.23,1.59,1.61.68.38,1.45.57,2.31.57s1.66-.21,2.26-.62,1.07-.98,1.38-1.7c.31-.72.47-1.54.47-2.46v-2.81l.65-.6c-.09.9-.32,1.69-.7,2.38-.38.69-.9,1.22-1.56,1.61-.66.39-1.46.58-2.42.58-1.3,0-2.38-.27-3.24-.81-.86-.54-1.5-1.28-1.92-2.22-.42-.94-.64-2.04-.64-3.29v-6.6h2.55v6.47c0,1.2.3,2.17.91,2.91.61.75,1.49,1.12,2.65,1.12.75,0,1.4-.19,1.95-.56.55-.37.98-.88,1.29-1.53.3-.65.46-1.36.46-2.12v-6.29h2.6v11.73c0,1.42-.26,2.67-.79,3.76-.53,1.08-1.29,1.93-2.29,2.53s-2.18.91-3.55.91Z" fill="currentColor">
       </path>
      </g>
     </svg>