<svg height="24" viewbox="0 0 24 24" width="24" xmlns="http://www.w3.org/2000/svg">
         <path d="M16.203 8.64117C17.7488 9.74558 19.6424 10.3954 21.6877 10.3954V6.46189C21.3006 6.46197 20.9145 6.42158 20.5358 6.34139V9.43764C18.4908 9.43764 16.5973 8.7879 15.0512 7.68357V15.7108C15.0512 19.7265 11.7942 22.9816 7.77676 22.9816C6.27775 22.9816 4.88443 22.5286 3.72705 21.7518C5.04804 23.1018 6.89025 23.9393 8.92826 23.9393C12.946 23.9393 16.2032 20.6842 16.2032 16.6683V8.64117H16.203ZM17.624 4.67273C16.8339 3.81013 16.3152 2.69538 16.203 1.46293V0.957031H15.1115C15.3863 2.5234 16.3235 3.86161 17.624 4.67273ZM6.26807 18.6704C5.82671 18.092 5.58813 17.3844 5.5892 16.6568C5.5892 14.8203 7.07894 13.3311 8.91693 13.3311C9.2594 13.3309 9.59986 13.3835 9.92633 13.4869V9.46544C9.54482 9.41322 9.15982 9.39096 8.775 9.39916V12.5293C8.44837 12.4257 8.10773 12.3732 7.76509 12.3735C5.92719 12.3735 4.43753 13.8625 4.43753 15.6993C4.43753 16.9981 5.18211 18.1226 6.26807 18.6704Z" fill="#FF004F">
         </path>
         <path d="M15.0513 7.68349C16.5974 8.78782 18.4907 9.43756 20.5358 9.43756V6.34131C19.3943 6.09824 18.3837 5.50205 17.6239 4.67273C16.3234 3.86153 15.3863 2.52332 15.1115 0.957031H12.2445V16.6682C12.238 18.4998 10.7508 19.9828 8.91679 19.9828C7.83613 19.9828 6.87596 19.468 6.26793 18.6703C5.18214 18.1226 4.43748 16.9981 4.43748 15.6994C4.43748 13.8627 5.92713 12.3736 7.76504 12.3736C8.11717 12.3736 8.45657 12.4284 8.77494 12.5293V9.39924C4.82802 9.48076 1.65381 12.704 1.65381 16.6683C1.65381 18.6472 2.44424 20.4411 3.72716 21.752C4.88454 22.5286 6.27778 22.9817 7.77687 22.9817C11.7944 22.9817 15.0514 19.7264 15.0514 15.7108V7.68357L15.0513 7.68349Z">
         </path>
         <path d="M20.5357 6.34179V5.50477C19.5063 5.50633 18.4972 5.21819 17.6238 4.6733C18.3969 5.51927 19.415 6.10265 20.5357 6.34196V6.34179ZM15.1113 0.957517C15.0851 0.807857 15.065 0.657195 15.0511 0.505903V0H11.0924V15.7113C11.0861 17.5428 9.59895 19.0258 7.76485 19.0258C7.2449 19.0266 6.73205 18.905 6.26775 18.671C6.87577 19.4686 7.83594 19.9833 8.9166 19.9833C10.7505 19.9833 12.2379 18.5004 12.2443 16.6688V0.9576H15.1113V0.957517ZM8.775 9.39972V8.5085C8.44421 8.46328 8.11072 8.44066 7.77685 8.4408C3.75892 8.4408 0.501953 11.696 0.501953 15.7113C0.501953 18.2287 1.78198 20.4473 3.72714 21.7524C2.44422 20.4416 1.65379 18.6476 1.65379 16.6687C1.65379 12.7046 4.82791 9.48124 8.775 9.39972Z" fill="#00F2EA">
         </path>
        </svg>