<svg class="absolute top-0 right-0 w-auto h-auto text-roseQuartz-10" fill="none" height="943" viewbox="0 0 97 943" width="97" xmlns="http://www.w3.org/2000/svg">
     <path clip-rule="evenodd" d="M27.3988 1024.85C39.8706 1008.08 50.5107 991.607 65.6449 965.646C73.7725 951.707 77.6294 946.252 79.3578 946.252C82.5989 946.252 118.171 956.312 126.963 959.716L133.993 962.437L133.755 955.933L133.518 949.43L123.448 945.967C117.91 944.063 106.673 940.745 98.4782 938.594C90.2843 936.442 83.5615 934.311 83.5401 933.857C83.5188 933.403 86.0848 927.585 89.2421 920.927C97.1202 904.314 116.504 856.476 123.3 836.877L128.898 820.733L127.987 805.058L127.077 789.381L120.171 810.993C108.38 847.897 89.2001 896.354 75.6178 923.557L71.6584 931.488L52.5543 931.829C39.4634 932.061 30.8194 932.905 25.0972 934.51C11.7033 938.265 12.5532 937.578 12.8039 944.45C13.0254 950.52 13.0878 950.612 16.3086 949.658C29.3704 945.786 42.6638 943.563 52.8481 943.547C59.3107 943.538 64.6127 943.896 64.6291 944.345C64.7001 946.291 35.9056 993.193 26.2744 1006.82L15.6906 1021.79L15.9684 1030.3C16.121 1034.97 16.4222 1038.8 16.6367 1038.8C16.8501 1038.8 21.6943 1032.53 27.3988 1024.85ZM123.17 665.787L122.919 658.894L112.777 653.629C101.171 647.604 84.787 642.015 72.2945 639.82C55.5514 636.877 31.5632 640.458 10.7638 649.004L2.15427 652.542L2.39401 659.113L2.63379 665.685L9.73639 662.371C31.2313 652.34 57.8965 648.592 76.8986 652.928C89.6339 655.834 103.95 661.544 114.391 667.881C118.741 670.521 122.551 672.681 122.86 672.681C123.168 672.681 123.308 669.579 123.17 665.787ZM109.919 302.566L109.607 294.016L97.9081 280.213C77.5716 256.215 69.8298 246.41 58.9136 230.826C34.9997 196.686 18.8899 161.389 13.1522 130.556C12.1493 125.168 11.3848 113.761 11.3275 103.335C11.2135 82.2387 13.7033 70.1663 21.4197 54.4068C30.8063 35.2351 56.0924 8.02492 84.3257 -13.2863L97.8495 -23.4943L97.6739 -30.6872C97.4638 -39.2863 98.7444 -39.7288 78.7143 -24.1393C33.714 10.8858 12.512 37.8469 3.68067 71.2824C0.696215 82.5791 0.330272 86.194 0.461905 103.083C0.63608 125.268 2.89486 138.647 10.189 160.672C19.4228 188.553 39.7621 225.138 61.7831 253.479C73.8622 269.025 101.71 302.519 106.961 307.817L110.231 311.118L109.919 302.566Z" fill="currentColor" fill-rule="evenodd">
     </path>
    </svg>