<svg class="absolute right-0 text-champagne-50" fill="none" height="444" viewbox="0 0 104 444" width="104" xmlns="http://www.w3.org/2000/svg">
     <path clip-rule="evenodd" d="M110.008 708.485C118.632 694.693 125.788 681.382 135.73 660.638C141.07 649.498 143.712 645.042 145.124 644.793C147.772 644.326 177.771 646.396 185.271 647.564L191.268 648.497L190.468 643.88L189.667 639.264L181.117 638.238C176.415 637.674 166.926 636.92 160.03 636.563C153.135 636.205 147.444 635.649 147.384 635.327C147.324 635.006 148.878 630.476 150.836 625.259C155.722 612.245 167.096 575.244 170.819 560.25L173.886 547.899L171.68 536.821L169.473 525.742L165.848 542.191C159.658 570.28 148.509 607.694 139.951 629.103L137.456 635.345L121.881 638.34C111.207 640.393 104.224 642.241 99.6991 644.213C89.107 648.828 89.7373 648.214 90.5832 653.092C91.3305 657.401 91.3901 657.458 93.9324 656.312C104.242 651.661 114.895 648.157 123.214 646.678C128.493 645.74 132.858 645.232 132.913 645.551C133.152 646.933 114.004 684.62 107.407 695.751L100.157 707.981L101.177 714.024C101.738 717.347 102.342 720.042 102.517 720.011C102.691 719.98 106.063 714.794 110.008 708.485ZM154.752 437.924L153.903 433.03L145.126 430.727C135.083 428.09 121.176 426.454 110.765 426.683C96.8121 426.991 77.5489 433.007 61.3537 442.115L54.65 445.884L55.4589 450.549L56.2679 455.214L61.7613 451.821C78.3862 441.552 99.8208 435.03 115.75 435.394C126.425 435.637 138.653 437.658 147.775 440.685C151.575 441.947 154.889 442.942 155.141 442.898C155.393 442.853 155.218 440.615 154.752 437.924ZM110.04 180.095L108.987 174.026L98.142 165.84C79.2888 151.609 72.0495 145.713 61.6774 136.141C38.9555 115.174 22.5015 92.2532 14.9375 71.0312C13.6154 67.3225 11.9267 59.2756 10.9072 51.8286C8.84598 36.7592 9.7537 27.7676 14.5876 15.3865C20.4676 0.324686 38.5868 -22.7756 59.6644 -42.0822L69.7605 -51.3299L68.946 -56.4484C67.9721 -62.5673 68.9772 -63.0681 54.0675 -49.0348C20.5711 -17.506 5.76541 4.82781 1.66976 30.0095C0.285443 38.5176 0.323735 41.1553 2.00691 53.2137C4.21891 69.053 7.3124 78.295 15.3262 92.9938C25.4711 111.601 45.5005 134.833 66.135 151.927C77.4537 161.304 103.329 181.244 108.113 184.276L111.092 186.165L110.04 180.095Z" fill="#F3D9D1" fill-opacity="0.2" fill-rule="evenodd">
     </path>
    </svg>