<svg class="absolute top-0 left-0 w-auto h-auto md:w-[24rem] text-roseQuartz-10" height="1139" viewbox="0 0 403 1139" width="403" xmlns="http://www.w3.org/2000/svg">
     <path clip-rule="evenodd" d="M-2.27443 6.97023L-0.428745 13.8584L12.4413 23.0952C26.2497 33.006 48.0233 46.3017 62.1559 53.4537C78.4426 61.6956 117.123 77.2672 119.637 76.5936C119.776 76.5563 119.2 73.9503 118.357 70.8041L116.824 65.0813L110.93 63.2343C104.42 61.1934 71.201 47.3645 63.5 43.4883C47.173 35.2722 25.171 21.5026 6.17171 7.60831L-4.12012 0.0820312L-2.27443 6.97023ZM53.0099 213.294L54.7309 219.717L61.2954 223.846C75.1509 232.561 88.409 244.337 117.442 273.715C143.539 300.123 154.906 311.254 162.794 318.124C166.584 321.426 169.885 324.519 170.131 325C170.375 325.479 172.273 344.03 174.348 366.224C179.469 421.003 183.862 463.483 188.774 505.717C193.911 549.897 197.326 581.052 197.243 582.969C197.202 583.882 190.923 578.968 180.624 569.965C160.147 552.066 141.562 536.128 140.162 535.266C139.368 534.777 139.564 536.317 140.957 541.518L142.807 548.42L162.167 565.186C172.816 574.407 185.359 585.176 190.041 589.115C195.284 593.528 198.645 596.979 198.79 598.104C200.798 613.587 209.911 708.457 210.731 722.409L211.224 730.788L201.945 721.616C196.842 716.571 191.098 711.554 189.181 710.464L185.696 708.484L187.426 714.941C189.021 720.895 189.378 721.562 192.006 723.494C195.683 726.197 207.376 737.75 210.044 741.316L212.105 744.071L212.84 761.328C213.243 770.819 213.417 785.636 213.225 794.255C212.879 809.812 212.895 809.993 215.45 819.488L218.024 829.052L219.172 816.392C220.416 802.664 220.687 781.893 219.847 764.664C219.555 758.684 219.512 753.738 219.752 753.671C221.182 753.273 245.543 789.631 258.344 811.269C271.269 833.117 284.97 859.319 302.547 895.808C316.589 924.956 331.906 959.859 352.854 1010.44L355.547 1016.94L351.723 1024.11C349.619 1028.05 343.83 1038.44 338.859 1047.18C326.637 1068.68 316.385 1087.91 306.111 1108.6L297.534 1125.87L299.244 1132.25C300.184 1135.76 301.079 1138.6 301.232 1138.56C301.385 1138.52 305.48 1130.44 310.331 1120.61C322.76 1095.41 357.977 1030.58 359.967 1029.23C360.266 1029.03 361.139 1030.4 361.905 1032.27C362.671 1034.14 368.042 1047.15 373.84 1061.18C379.638 1075.21 388.559 1097.18 393.663 1110.01L402.944 1133.34L395.8 1106.46C387.946 1076.9 389.629 1081.61 370.57 1035.88C367.38 1028.23 364.672 1021.59 364.552 1021.13C364.432 1020.66 365.616 1017.99 367.184 1015.18L370.034 1010.07L368.365 1003.84C367.447 1000.42 366.479 997.693 366.214 997.788C365.949 997.884 364.381 1000.55 362.73 1003.71L359.728 1009.46L343.118 970.202C333.982 948.609 323.712 924.891 320.295 917.496C301.825 877.521 276.714 828.192 263.397 805.728C253.168 788.471 233.412 758.665 223.967 746.241L218.798 739.441L216.807 714.161C215.711 700.257 212.876 670.134 210.507 647.222C208.138 624.309 206.3 605.072 206.423 604.474C206.859 602.348 238.667 631.354 265.36 658.219L279.593 672.544L277.51 664.769L275.427 656.994L262.667 644.201C244.382 625.866 235.644 617.632 220.034 604.027C212.454 597.42 205.954 591.736 205.59 591.398C205.225 591.058 204.465 586.09 203.899 580.359C203.333 574.628 200.579 550.152 197.78 525.97C189.921 458.078 188.577 445.246 181.679 372.254C179.987 354.354 178.418 337.917 178.19 335.727C177.964 333.537 177.944 331.7 178.146 331.646C178.348 331.592 179.99 332.749 181.794 334.216C183.599 335.684 186.356 337.818 187.92 338.957L190.764 341.029L188.909 334.105L187.054 327.182L182.218 323.535C179.558 321.529 177.212 319.279 177.005 318.534C176.797 317.789 175.985 308.279 175.201 297.402L173.775 277.624L169.695 262.556L165.615 247.489L166.16 259.935C166.46 266.78 167.275 280.445 167.971 290.3C168.668 300.156 169.281 309.282 169.333 310.581C169.417 312.678 168.654 312.249 162.529 306.764C158.734 303.366 142.923 287.83 127.391 272.238C111.859 256.648 94.452 239.586 88.7089 234.325C79.0792 225.503 64.918 214.867 55.2582 209.2L51.2889 206.871L53.0099 213.294Z" fill="currentColor" fill-rule="evenodd">
     </path>
    </svg>