<svg class="size-4 md:size-5" fill="none" height="25" viewbox="0 0 25 25" width="25" xmlns="http://www.w3.org/2000/svg">
       <path d="M16.87 12.9143C16.7479 12.8657 16.6174 12.8417 16.4859 12.8435C16.3545 12.8454 16.2247 12.8731 16.104 12.9251C15.9833 12.9771 15.874 13.0523 15.7824 13.1466C15.6908 13.2408 15.6186 13.3522 15.57 13.4743C15.5214 13.5964 15.4974 13.7269 15.4992 13.8584C15.501 13.9898 15.5288 14.1196 15.5808 14.2403C15.6328 14.361 15.708 14.4703 15.8023 14.5619C15.8965 14.6536 16.0079 14.7257 16.13 14.7743C17.59 15.3543 18.5 16.2543 18.5 17.1243C18.5 18.5443 16.04 20.1243 12.5 20.1243C8.96 20.1243 6.5 18.5443 6.5 17.1243C6.5 16.2543 7.41 15.3543 8.87 14.7743C9.11665 14.6762 9.31422 14.4841 9.41924 14.2403C9.52426 13.9965 9.52813 13.721 9.43 13.4743C9.33187 13.2277 9.13978 13.0301 8.89598 12.9251C8.65218 12.8201 8.37665 12.8162 8.13 12.9143C5.86 13.8143 4.5 15.3843 4.5 17.1243C4.5 19.9243 8.01 22.1243 12.5 22.1243C16.99 22.1243 20.5 19.9243 20.5 17.1243C20.5 15.3843 19.14 13.8143 16.87 12.9143ZM11.5 9.98431V17.1243C11.5 17.3895 11.6054 17.6439 11.7929 17.8314C11.9804 18.019 12.2348 18.1243 12.5 18.1243C12.7652 18.1243 13.0196 18.019 13.2071 17.8314C13.3946 17.6439 13.5 17.3895 13.5 17.1243V9.98431C14.4427 9.74092 15.2642 9.16208 15.8106 8.3563C16.357 7.55053 16.5908 6.57312 16.4681 5.60731C16.3454 4.6415 15.8747 3.75358 15.1442 3.10999C14.4137 2.4664 13.4736 2.11133 12.5 2.11133C11.5264 2.11133 10.5863 2.4664 9.85577 3.10999C9.12526 3.75358 8.65456 4.6415 8.53188 5.60731C8.40921 6.57312 8.64299 7.55053 9.1894 8.3563C9.73581 9.16208 10.5573 9.74092 11.5 9.98431ZM12.5 4.12431C12.8956 4.12431 13.2822 4.24161 13.6111 4.46137C13.94 4.68114 14.1964 4.99349 14.3478 5.35894C14.4991 5.7244 14.5387 6.12653 14.4616 6.51449C14.3844 6.90245 14.1939 7.25882 13.9142 7.53853C13.6345 7.81823 13.2781 8.00871 12.8902 8.08588C12.5022 8.16305 12.1001 8.12345 11.7346 7.97207C11.3692 7.8207 11.0568 7.56435 10.8371 7.23545C10.6173 6.90655 10.5 6.51987 10.5 6.12431C10.5 5.59388 10.7107 5.08517 11.0858 4.7101C11.4609 4.33503 11.9696 4.12431 12.5 4.12431Z" fill="url(#paint0_linear_3076_10889)">
       </path>
       <defs>
        <lineargradient gradientunits="userSpaceOnUse" id="paint0_linear_3076_10889" x1="4.5" x2="20.5" y1="12.1178" y2="12.1178">
         <stop offset="0.1" stop-color="#BAA8B4">
         </stop>
         <stop offset="1" stop-color="#222121">
         </stop>
        </lineargradient>
       </defs>
      </svg>