<svg class="w-5 h-5" fill="none" viewbox="0 0 24 24" xmlns="http://www.w3.org/2000/svg">
            <path d="M16.87 12.7893C16.7479 12.7407 16.6174 12.7167 16.4859 12.7185C16.3545 12.7204 16.2247 12.7481 16.104 12.8001C15.9833 12.8521 15.874 12.9273 15.7824 13.0216C15.6908 13.1158 15.6186 13.2272 15.57 13.3493C15.5214 13.4714 15.4974 13.6019 15.4992 13.7334C15.501 13.8648 15.5288 13.9946 15.5808 14.1153C15.6328 14.236 15.708 14.3453 15.8023 14.4369C15.8965 14.5286 16.0079 14.6007 16.13 14.6493C17.59 15.2293 18.5 16.1293 18.5 16.9993C18.5 18.4193 16.04 19.9993 12.5 19.9993C8.96 19.9993 6.5 18.4193 6.5 16.9993C6.5 16.1293 7.41 15.2293 8.87 14.6493C9.11665 14.5512 9.31422 14.3591 9.41924 14.1153C9.52426 13.8715 9.52813 13.596 9.43 13.3493C9.33187 13.1027 9.13978 12.9051 8.89598 12.8001C8.65218 12.6951 8.37665 12.6912 8.13 12.7893C5.86 13.6893 4.5 15.2593 4.5 16.9993C4.5 19.7993 8.01 21.9993 12.5 21.9993C16.99 21.9993 20.5 19.7993 20.5 16.9993C20.5 15.2593 19.14 13.6893 16.87 12.7893ZM11.5 9.85931V16.9993C11.5 17.2645 11.6054 17.5189 11.7929 17.7064C11.9804 17.894 12.2348 17.9993 12.5 17.9993C12.7652 17.9993 13.0196 17.894 13.2071 17.7064C13.3946 17.5189 13.5 17.2645 13.5 16.9993V9.85931C14.4427 9.61592 15.2642 9.03708 15.8106 8.2313C16.357 7.42553 16.5908 6.44812 16.4681 5.48231C16.3454 4.5165 15.8747 3.62858 15.1442 2.98499C14.4137 2.3414 13.4736 1.98633 12.5 1.98633C11.5264 1.98633 10.5863 2.3414 9.85577 2.98499C9.12526 3.62858 8.65456 4.5165 8.53188 5.48231C8.40921 6.44812 8.64299 7.42553 9.1894 8.2313C9.73581 9.03708 10.5573 9.61592 11.5 9.85931ZM12.5 3.99931C12.8956 3.99931 13.2822 4.11661 13.6111 4.33637C13.94 4.55614 14.1964 4.86849 14.3478 5.23394C14.4991 5.5994 14.5387 6.00153 14.4616 6.38949C14.3844 6.77745 14.1939 7.13382 13.9142 7.41353C13.6345 7.69323 13.2781 7.88371 12.8902 7.96088C12.5022 8.03805 12.1001 7.99845 11.7346 7.84707C11.3692 7.6957 11.0568 7.43935 10.8371 7.11045C10.6173 6.78155 10.5 6.39487 10.5 5.99931C10.5 5.46888 10.7107 4.96017 11.0858 4.5851C11.4609 4.21003 11.9696 3.99931 12.5 3.99931Z" fill="url(#paint0_linear_3838_14030)">
            </path>
            <defs>
             <lineargradient gradientunits="userSpaceOnUse" id="paint0_linear_3838_14030" x1="19.14" x2="4.38659" y1="9.29107" y2="11.0313">
              <stop stop-color="#FFF8F0">
              </stop>
              <stop offset="1" stop-color="#F3D9D1">
              </stop>
             </lineargradient>
            </defs>
           </svg>