<?xml version="1.0" encoding="UTF-8"?>
<svg id="Layer_2" data-name="Layer 2" xmlns="http://www.w3.org/2000/svg" viewBox="0 0 87.38 58.38">
  <defs>
    <style>
      .cls-1 {
        fill: #fff8f0;
        stroke-width: 0px;
      }
    </style>
  </defs>
  <g id="logo">
    <path class="cls-1" d="m2.72,58.38c-.46,0-.93-.09-1.37-.28-3.23-1.35.15-11.51,1.75-15.81.37-.99,1.06-3.04,1.94-5.65,1.68-5,3.99-11.85,6.25-17.88C14.96,9.02,19.19,0,25.31,0c5.79,0,11.82,14.91,19.7,35.98l1.05,2.8c.16.42.32.84.49,1.24,1.66-3.95,3.18-8.68,4.66-13.28,3.47-10.78,6.47-20.09,11.24-20.99.33-.06.65-.09.97-.09,3.91,0,6.38,4.51,8.01,8.96,1.06-2.05,2.33-3.56,4.03-3.56,1.04,0,2.01.55,2.97,1.69,4.33,5.13,9.93,27.4,8.8,35.05-.24,1.64-.78,2.71-1.63,3.26-.67.44-1.37.66-2.09.66h0c-4.04,0-7.54-7.01-10.4-20.83-.54-2.63-1.22-5.8-2-8.84-.46,1.34-.94,2.79-1.45,4.35-.88,2.67-1.87,5.7-2.98,8.75-3.5,9.66-8.24,15.2-13.01,15.2-2.61,0-4.98-1.62-7.05-4.81-2.16,3.86-4.37,5.84-6.85,6.18-.22.03-.45.05-.66.05h0c-5.09,0-7.13-7.89-9.11-15.51-1.01-3.91-1.97-7.61-3.17-9.5-.46-.73-.79-.73-.9-.73-2.87,0-8.55,11.23-11.95,17.95-.42.84-.84,1.65-1.24,2.44-4.41,8.63-7.22,11.99-10.02,11.99Zm-.26-2.48c.09.02.17.04.26.04,1.59,0,4.23-3.58,7.84-10.65.4-.78.81-1.6,1.23-2.43,5.71-11.3,10.07-19.29,14.13-19.29.81,0,1.99.32,2.97,1.86,1.41,2.21,2.42,6.09,3.48,10.2,1.58,6.1,3.54,13.68,6.73,13.68.1,0,.21,0,.32-.02,1.86-.26,3.8-2.38,5.76-6.3-.49-1.01-.97-2.13-1.43-3.34l-1.05-2.8C37.9,23.97,29.84,2.45,25.31,2.45c-5.27,0-9.79,12.04-11.72,17.17-2.25,5.99-4.55,12.81-6.22,17.8-.88,2.63-1.58,4.7-1.96,5.72-1.77,4.75-3.42,11.33-2.94,12.75ZM72.56,18.07c1.19,4,2.2,8.66,2.95,12.32,3.08,14.9,6.47,18.88,8,18.88.24,0,.48-.08.75-.26,0,0,.35-.24.54-1.57,1.09-7.4-4.69-28.9-8.25-33.11-.64-.76-1-.82-1.1-.82-.25,0-1.19.34-2.9,4.56Zm-24.63,24.87c1.31,2.37,3.29,4.94,5.74,4.94,3.57,0,7.67-5.2,10.71-13.58,1.09-3.02,2.08-6.03,2.96-8.68.96-2.93,1.8-5.49,2.64-7.65-2.03-6.55-4.23-9.87-6.55-9.87-.17,0-.34.02-.52.05-3.35.63-6.54,10.57-9.37,19.33-1.75,5.43-3.55,11.04-5.6,15.45Z"/>
  </g>
</svg>