<svg width="48" height="62" viewBox="0 0 48 62" fill="none" xmlns="http://www.w3.org/2000/svg">
<path d="M28.5611 59.4197C28.1451 59.8521 27.673 60.2246 27.1579 60.5268C23.5358 62.6304 19.1088 60.5269 18.2713 60.1172C18.0512 59.9782 17.8646 59.7906 17.7253 59.5683C17.586 59.346 17.4975 59.0947 17.4664 58.8329C17.5344 58.309 17.7988 57.8322 18.2042 57.5021C18.6096 57.1719 19.1247 57.0141 19.6418 57.0615C23.9274 56.7294 27.1906 56.4636 28.7678 56.4636C29.2448 56.43 29.7161 56.337 30.1709 56.1869C30.6387 56.0319 32.5313 55.3565 32.5748 54.2161C32.5669 53.9656 32.5007 53.7205 32.3815 53.501C32.2624 53.2816 32.0938 53.0941 31.8895 52.954C31.3674 52.3119 28.4958 52.5111 28.4958 52.5111C28.4958 52.5111 17.4011 52.6772 13.5832 51.0497C11.4078 49.5551 12.4955 48.2597 13.5832 47.8501C14.6709 47.4404 28.8983 47.3076 32.9772 46.7429C37.0562 46.1783 37.785 45.514 37.1867 44.429C36.5885 43.344 36.3165 42.724 32.912 42.2147C31.4045 42.0987 29.9302 41.7048 28.5611 41.0522C27.6474 40.4876 26.5271 39.3029 25.9506 36.4797C25.9245 35.1589 26.0523 33.8396 26.3313 32.5493C26.647 30.1997 27.7134 28.0211 29.366 26.3493C30.1274 25.6629 31.5415 24.3676 33.3579 24.6997C34.3587 24.8768 35.6204 25.6076 35.7944 26.5597C36.1208 28.3422 32.5313 30.5565 29.8337 31.5197C22.6657 34.0993 13.4418 30.7447 12.8544 27.0911C12.7688 26.608 12.8014 26.1108 12.9494 25.6435C13.0974 25.1762 13.3562 24.7532 13.7029 24.4118C14.7906 23.5483 16.4439 24.1793 16.792 24.3011C19.2829 25.2311 20.3053 27.9768 20.6099 28.7961C21.5355 31.5693 21.3439 34.6029 20.0769 37.2326C19.4895 38.4394 18.0755 41.3733 15.3236 42.0708C11.4622 43.0451 7.70953 38.9265 6.62181 37.6422C0.715496 31.1765 1.59655 22.1422 1.74883 20.7693C2.45288 14.603 5.53152 8.97289 10.3092 5.11435C18.8043 -1.52851 28.6155 0.907205 30.1057 1.30578C31.5958 1.70435 39.1555 3.70828 43.3432 10.7608C48.0639 18.6326 46.8783 29.6818 40.265 38.3286" stroke="#FFF8F0" stroke-width="2.5" stroke-linecap="round" stroke-linejoin="round"/>
</svg>
