<svg width="74" height="65" viewBox="0 0 74 65" fill="none" xmlns="http://www.w3.org/2000/svg">
<g clip-path="url(#clip0_4871_19363)">
<path d="M61.0237 21.4767C59.9451 21.4938 59.31 21.2073 58.9242 20.4595C58.557 19.7487 58.7971 19.1108 59.1873 18.5227C59.3921 18.2125 59.6589 17.948 59.9712 17.746C61.6289 16.7049 63.2808 15.6486 64.9921 14.7013C65.5587 14.4249 66.1928 14.3171 66.8192 14.3907C67.1093 14.4238 67.3874 14.525 67.631 14.6861C67.8745 14.8472 68.0765 15.0637 68.2206 15.3178C68.3645 15.5719 68.4462 15.8564 68.4592 16.1481C68.4723 16.4398 68.416 16.7305 68.2952 16.9963C67.9901 17.668 67.5067 18.2431 66.8971 18.6588C65.3649 19.5884 63.7431 20.3741 62.1354 21.1734C61.7787 21.3201 61.4053 21.422 61.0237 21.4767Z" fill="#FFF8F0"/>
<path d="M10.74 23.7208C10.3983 23.5282 9.62411 23.2573 9.07918 22.7422C8.20186 21.8953 7.40556 20.9683 6.70062 19.9734C6.32476 19.4671 6.10931 18.8598 6.08203 18.2299C6.09477 17.0804 7.30549 16.2511 8.53049 16.6609C9.547 16.9749 10.4914 17.4866 11.3095 18.1669C12.1275 18.8471 12.8029 19.6824 13.297 20.6246C14.1231 22.2377 12.9847 23.773 10.74 23.7208Z" fill="#FFF8F0"/>
<path d="M54.6793 0.664123C56.3085 0.654181 57.2891 1.87296 56.9669 3.15358C56.8777 3.56864 56.6866 3.95488 56.4105 4.2773C55.3069 5.41688 54.1937 6.55586 52.993 7.5895C52.4101 8.09093 51.6741 8.46558 50.789 8.16733C49.7585 7.81999 49.2611 6.97245 49.5957 5.94628C49.6817 5.63892 49.8268 5.35114 50.0222 5.09874C51.0587 3.89734 52.0814 2.67823 53.1993 1.55543C53.6588 1.09376 54.345 0.858298 54.6793 0.664123Z" fill="#FFF8F0"/>
<path d="M25.7364 6.67384C25.6432 7.6152 25.2495 8.31209 24.4004 8.72188C23.6064 9.10463 22.9191 8.84177 22.3673 8.29559C21.1689 7.15968 20.2681 5.74652 19.7443 4.1806C19.3948 3.07365 19.7235 2.14849 20.5253 1.6511C21.3782 1.12294 22.3052 1.19714 23.1152 2.06425C24.3507 3.38899 25.3872 4.85885 25.7364 6.67384Z" fill="#FFF8F0"/>
<path d="M72.8449 31.1822C72.8207 30.3825 72.679 29.5907 72.4236 28.8325C72.0533 27.8268 71.3859 27.1436 70.5496 26.914C69.7036 26.6807 68.7713 26.933 67.9253 27.6193C67.2868 28.1366 66.6611 28.7017 66.0578 29.2476C65.8092 29.4709 65.5607 29.6977 65.3122 29.918L61.9985 32.8644C59.2943 35.2684 56.5883 37.6724 53.8801 40.0762C53.6859 40.2387 53.4812 40.3881 53.2671 40.5229C53.1807 40.5804 53.0916 40.6379 53.0021 40.7019C52.9415 40.7432 52.8726 40.7702 52.8002 40.7808C52.7278 40.7917 52.6538 40.7861 52.5839 40.764C52.5134 40.7423 52.4494 40.7044 52.396 40.6534C52.3428 40.6025 52.3021 40.5397 52.2773 40.4704C51.6739 38.8198 51.0868 37.1772 50.4993 35.5412C49.1944 31.9062 47.8433 28.1446 46.4294 24.5053C44.4593 19.4413 42.3461 14.5288 40.3605 9.97326C39.8423 8.87231 39.1383 7.86906 38.279 7.00754C37.5063 6.19978 36.6604 6.13919 35.5397 6.81927C34.627 7.36824 34.2374 8.31954 33.8254 9.32521L33.7872 9.41842C33.3755 10.4145 32.9682 11.4126 32.5647 12.413C31.3291 15.4459 30.0522 18.5872 28.6954 21.6328C26.6449 26.2392 24.427 30.8652 22.3296 35.2094C21.6178 36.6842 20.8421 38.1015 20.0216 39.6021C19.6488 40.2856 19.2682 40.9812 18.8882 41.6964C18.8576 41.7548 18.8152 41.806 18.7639 41.8471C18.7125 41.8881 18.6532 41.9182 18.5896 41.9353C18.5261 41.9524 18.4597 41.9561 18.3947 41.9465C18.3296 41.9365 18.2673 41.9135 18.2115 41.8784L16.8641 41.0321C16.0085 40.499 15.2296 40.014 14.4539 39.5222C13.3622 38.8328 12.2703 38.1422 11.1784 37.4503C9.03967 36.0936 6.89868 34.7421 4.75539 33.3959C4.27483 33.0443 3.70524 32.8339 3.11127 32.7895C2.67381 32.8035 2.25632 32.9759 1.9366 33.2748C0.994614 34.0471 0.729612 35.0018 1.12883 36.1952C1.38421 36.9644 1.72907 37.7309 2.06087 38.4746L2.07703 38.5057C2.34515 39.1093 2.63873 39.7189 2.91959 40.3095C3.4496 41.4236 4.002 42.5775 4.44565 43.758C4.72979 44.5049 5.01503 45.253 5.30126 46.0024C7.13054 50.794 9.0204 55.7487 10.256 60.8501C10.6742 62.5806 11.6733 63.516 13.3109 63.7105C13.7611 63.7649 14.2119 63.8224 14.6583 63.8798C16.4952 64.1563 18.3492 64.3048 20.2067 64.3235C24.427 64.2694 28.7175 64.1129 32.8679 63.9628C34.6938 63.8957 36.5187 63.832 38.3427 63.7714C41.3373 63.6754 44.332 63.5838 47.3263 63.4968L50.7646 63.3915C51.0423 63.3849 51.3201 63.3753 51.6009 63.3691C51.9042 63.3626 52.2108 63.3529 52.5171 63.3436C53.5803 63.3125 54.6434 63.27 55.7063 63.2318C58.316 63.1361 61.0089 63.037 63.6649 63.0211C64.8909 63.0146 65.7561 62.5862 66.3915 61.6771C66.8292 61.0095 67.162 60.2784 67.3779 59.5095L67.7227 58.3793C69.1304 53.7694 70.5832 48.9998 71.4385 44.1731C71.5217 43.7037 71.6078 43.2377 71.6907 42.7682C72.3724 38.9972 73.081 35.0895 72.8449 31.1822ZM62.2044 57.4845C62.174 57.5687 62.1202 57.6423 62.0497 57.6973C61.9792 57.7523 61.8944 57.7862 61.8055 57.7952C61.4225 57.8368 61.0266 57.8847 60.6274 57.9325C59.7146 58.0443 58.7665 58.1593 57.8086 58.2006C56.2378 58.2677 54.6419 58.3156 53.0997 58.356C51.0439 58.4181 48.9176 58.4771 46.8329 58.5921C44.4037 58.7294 41.9326 58.9304 39.5447 59.1252C38.1721 59.237 36.7992 59.3489 35.4267 59.4477C33.4218 59.5946 31.7488 59.7127 30.0059 59.7671C25.712 59.9044 21.3479 60.0156 17.1276 60.1247L15.0367 60.1787H14.9886C14.7944 60.1747 14.601 60.152 14.411 60.1116C14.347 60.0989 14.2833 60.0861 14.2224 60.0805C14.1318 60.0681 14.0467 60.0299 13.9771 59.9706C13.9075 59.9109 13.8564 59.8329 13.8297 59.7453L8.28471 41.7082C8.25526 41.6153 8.25514 41.5152 8.28437 41.422C8.31358 41.3288 8.37074 41.2471 8.44807 41.1875C8.5254 41.1278 8.61919 41.0933 8.71675 41.089C8.81427 41.0843 8.91083 41.1098 8.99337 41.162L9.71167 41.606C10.1873 41.8996 10.6248 42.1677 11.0557 42.4423C11.6685 42.8319 12.2815 43.2193 12.8946 43.6043C14.4141 44.5652 15.988 45.555 17.5044 46.5827C18.4747 47.2405 19.3241 47.4927 20.0231 47.333C20.7066 47.1777 21.3096 46.6371 21.862 45.6827L22.3591 44.8302C23.2977 43.2212 24.2682 41.5547 25.0757 39.8593C27.7475 34.2279 30.4262 28.4817 33.0155 22.9237C34.037 20.7305 35.0607 18.5373 36.0865 16.3441C36.1726 16.1577 36.2621 15.9768 36.3898 15.7248L36.6355 15.2299C36.675 15.1469 36.7383 15.0774 36.8172 15.0302C36.8965 14.9831 36.9875 14.9604 37.0795 14.965C37.1711 14.9672 37.2603 14.9958 37.3361 15.0473C37.4119 15.0988 37.4712 15.171 37.507 15.2554C37.8838 16.143 38.2638 17.0017 38.6372 17.8446C39.4481 19.6776 40.2142 21.4072 40.8688 23.2045C42.366 27.326 43.8312 31.5307 45.2519 35.6005C46.0659 37.9312 46.8833 40.2629 47.7038 42.5952C48.1092 43.7845 48.5824 44.9495 49.1211 46.0844C49.2982 46.4985 49.57 46.8652 49.9152 47.1547C50.26 47.4443 50.6683 47.6484 51.107 47.7509C51.9657 47.9202 52.8722 47.6232 53.6639 46.9177C54.8674 45.8452 56.0648 44.7628 57.2618 43.6838C58.3122 42.7356 59.3623 41.7896 60.4127 40.8457C61.7502 39.6521 63.092 38.461 64.4382 37.2729L66.2402 35.6797C66.3067 35.621 66.3877 35.5816 66.475 35.566C66.5623 35.5502 66.6524 35.5589 66.7351 35.5906L67.0669 35.7214C67.1685 35.7611 67.2539 35.8342 67.3083 35.9289C67.363 36.0237 67.3835 36.134 67.367 36.2418C66.3865 42.4992 65.0074 49.9182 62.2044 57.4845Z" fill="#FFF8F0"/>
</g>
<defs>
<clipPath id="clip0_4871_19363">
<rect width="72.3884" height="64" fill="white" transform="translate(0.804688 0.5)"/>
</clipPath>
</defs>
</svg>
