<svg width="1440" height="772" viewBox="0 0 1440 772" fill="none" xmlns="http://www.w3.org/2000/svg">
<g opacity="0.2" clip-path="url(#clip0_3300_5967)" filter="url(#filter0_f_3300_5967)">
<path opacity="0.35" d="M1515.38 562.341C1425.23 691.722 1034.18 746.406 642.082 684.36C249.832 622.314 5.03245 467.128 95.1824 337.746C185.332 208.365 576.382 153.681 968.482 215.727C1360.58 277.773 1605.53 432.888 1515.38 562.341Z" fill="url(#paint0_radial_3300_5967)"/>
<path opacity="0.35" d="M846.292 566.446C811.771 630.279 702.379 665.448 602.083 645.004C501.787 624.561 448.49 556.367 483.011 492.534C517.531 428.701 626.924 393.533 727.22 413.976C827.632 434.348 880.929 502.613 846.292 566.446Z" fill="url(#paint1_radial_3300_5967)"/>
<path opacity="0.15" d="M179.55 692.227C156.45 725.323 83.7 743.551 16.8 732.972C-50.1 722.393 -85.5 687.009 -62.55 653.985C-39.6 620.96 33.3 602.661 100.2 613.24C167.1 623.82 202.65 659.203 179.55 692.227Z" fill="url(#paint2_radial_3300_5967)"/>
<path opacity="0.35" d="M1212.49 173.222C1407.53 272.955 1320.74 462.71 1018.48 596.937C716.231 731.165 312.937 759.26 117.769 659.493C-77.2674 559.76 9.52269 370.005 311.776 235.778C614.029 101.55 1017.32 73.4547 1212.49 173.222Z" fill="url(#paint3_radial_3300_5967)"/>
</g>
<defs>
<filter id="filter0_f_3300_5967" x="-40" y="-40" width="1520" height="852" filterUnits="userSpaceOnUse" color-interpolation-filters="sRGB">
<feFlood flood-opacity="0" result="BackgroundImageFix"/>
<feBlend mode="normal" in="SourceGraphic" in2="BackgroundImageFix" result="shape"/>
<feGaussianBlur stdDeviation="20" result="effect1_foregroundBlur_3300_5967"/>
</filter>
<radialGradient id="paint0_radial_3300_5967" cx="0" cy="0" r="1" gradientUnits="userSpaceOnUse" gradientTransform="translate(805.283 450.043) rotate(8.98666) scale(701.709 249.504)">
<stop offset="0.0614525" stop-color="#B37BA4"/>
<stop offset="1" stop-color="#B37BA4" stop-opacity="0"/>
</radialGradient>
<radialGradient id="paint1_radial_3300_5967" cx="0" cy="0" r="1" gradientUnits="userSpaceOnUse" gradientTransform="translate(664.651 529.49) rotate(11.4991) scale(180.898 159.747)">
<stop stop-color="#F3D9D1" stop-opacity="0.25"/>
<stop offset="1" stop-color="#A5668B" stop-opacity="0"/>
</radialGradient>
<radialGradient id="paint2_radial_3300_5967" cx="0" cy="0" r="1" gradientUnits="userSpaceOnUse" gradientTransform="translate(58.5001 673.106) rotate(8.98794) scale(119.732 63.8133)">
<stop offset="0.0614525" stop-color="#F3D9D1"/>
<stop offset="1" stop-color="#A5668B" stop-opacity="0"/>
</radialGradient>
<radialGradient id="paint3_radial_3300_5967" cx="0" cy="0" r="1" gradientUnits="userSpaceOnUse" gradientTransform="translate(665.13 416.358) rotate(-23.9531) scale(584.538 299.561)">
<stop offset="0.0614525" stop-color="#B37BA4"/>
<stop offset="1" stop-color="#B37BA4" stop-opacity="0"/>
</radialGradient>
<clipPath id="clip0_3300_5967">
<rect width="1440" height="772" fill="white"/>
</clipPath>
</defs>
</svg>
