<svg width="12" height="55" viewBox="0 0 12 55" fill="none" xmlns="http://www.w3.org/2000/svg">
<path d="M6.38597 54.92C6.50862 54.8724 6.62067 54.801 6.7157 54.71L11.7116 49.71C11.8047 49.6168 11.8786 49.5061 11.9291 49.3842C11.9795 49.2624 12.0054 49.1319 12.0054 49C12.0054 48.7337 11.8997 48.4783 11.7116 48.29C11.6184 48.1968 11.5078 48.1228 11.3861 48.0723C11.2644 48.0219 11.1339 47.9959 11.0022 47.9959C10.7361 47.9959 10.4809 48.1017 10.2928 48.29L7.00546 51.59L7.00546 44C7.00546 43.7348 6.90019 43.4804 6.71281 43.2929C6.52543 43.1054 6.27128 43 6.00628 43C5.74129 43 5.48714 43.1054 5.29976 43.2929C5.11238 43.4804 5.00711 43.7348 5.00711 44L5.00711 51.59L1.71982 48.29C1.62693 48.1963 1.51642 48.1219 1.39466 48.0711C1.2729 48.0203 1.14231 47.9942 1.0104 47.9942C0.878499 47.9942 0.747901 48.0203 0.626142 48.0711C0.504383 48.1219 0.393874 48.1963 0.300988 48.29C0.207336 48.383 0.133002 48.4936 0.0822748 48.6154C0.0315479 48.7373 0.00543193 48.868 0.00543193 49C0.00543193 49.132 0.0315479 49.2627 0.0822748 49.3846C0.133002 49.5064 0.207336 49.617 0.300988 49.71L5.29687 54.71C5.39189 54.801 5.50395 54.8724 5.6266 54.92C5.86986 55.02 6.14271 55.02 6.38597 54.92Z" fill="#FFF8F0"/>
<path d="M6 1C6 17.3468 6 48.9507 6 44.5915" stroke="#FFF8F0" stroke-width="2" stroke-linecap="round"/>
</svg>
