<svg width="76" height="68" viewBox="0 0 76 68" fill="none" xmlns="http://www.w3.org/2000/svg">
<path d="M4.22607 9.8012L17.4171 10.1851C17.8528 10.2402 18.2953 10.2013 18.7147 10.0708C19.1341 9.94039 19.5206 9.72152 19.8482 9.42896C19.9529 9.31264 20.5461 8.6845 20.3368 8.26574C20.1274 7.84697 19.6156 7.84697 19.2317 7.91677C18.9848 7.97744 18.7535 8.08964 18.553 8.24601C18.3526 8.40238 18.1874 8.59938 18.0685 8.82408C17.2891 10.0804 17.8475 12.9303 19.3829 14.931C20.4521 16.309 21.9128 17.3318 23.5734 17.8652C25.234 18.3987 27.017 18.418 28.6887 17.9205C30.1778 17.3885 31.4907 16.455 32.4822 15.2232C33.4738 13.9915 34.1054 12.5095 34.3071 10.9412C34.6793 8.39369 33.9814 4.96217 31.399 3.15917C29.8428 2.21928 28.0142 1.83389 26.211 2.06574C25.0478 2.06574 20.3949 2.31001 19.2317 5.25298C18.8531 6.36694 18.9029 7.58196 19.3713 8.66123" stroke="#FFF8F0" stroke-width="2.5" stroke-linecap="round" stroke-linejoin="round"/>
<path d="M72.577 34.0096L62.5733 33.9049C62.2272 33.8993 61.8817 33.876 61.538 33.8352C60.5493 33.7072 59.2814 33.5443 59.1301 32.9744C59.1103 32.769 59.162 32.5631 59.2764 32.3914C59.3909 32.2197 59.5611 32.0928 59.7583 32.0322C60.3864 31.8809 61.0844 32.7882 61.317 33.1954C62.3639 34.917 61.224 37.8483 59.7583 39.6513C58.8203 40.7915 57.603 41.6693 56.225 42.1993C54.847 42.7293 53.3552 42.8934 51.8949 42.6757C50.1847 42.3787 48.609 41.5576 47.3857 40.326C46.1625 39.0944 45.3521 37.5132 45.0667 35.801C44.9274 34.583 45.0471 33.3494 45.4178 32.1809C45.7886 31.0124 46.402 29.9354 47.2181 29.0206C48.0341 28.1057 49.0342 27.3736 50.1529 26.8722C51.2716 26.3709 52.4836 26.1116 53.7095 26.1113C54.6866 26.1113 58.5718 26.344 60.1189 29.3335C60.6922 30.5145 60.8559 31.8528 60.5842 33.1372" stroke="#FFF8F0" stroke-width="2.5" stroke-linecap="round" stroke-linejoin="round"/>
<path d="M1.4458 59.0873C1.4458 59.0873 14.6368 58.1102 17.8357 58.3196C19.5689 58.6918 20.2668 60.0644 19.4991 60.5413C19.1717 60.6501 18.8256 60.6912 18.4818 60.6622C18.138 60.6333 17.8037 60.5347 17.4991 60.3727C17.1946 60.2106 16.9261 59.9884 16.71 59.7194C16.4939 59.4505 16.3347 59.1404 16.242 58.8081C15.7419 57.04 16.5096 53.5503 19.8131 51.5845C23.1167 49.6186 30.131 51.1425 32.0736 56.156C34.0161 61.1695 31.1779 64.9965 26.7227 65.7526C22.2676 66.5087 18.5801 65.6828 17.0679 61.2393" stroke="#FFF8F0" stroke-width="2.5" stroke-linecap="round" stroke-linejoin="round"/>
<path d="M40.1702 34.4395H5.47113" stroke="#FFF8F0" stroke-width="2.5" stroke-linecap="round" stroke-linejoin="round"/>
<path d="M39.3898 9.80377C39.3898 9.80377 53.7673 9.72234 58.141 9.80377L74.5542 10.1644" stroke="#FFF8F0" stroke-width="2.5" stroke-linecap="round" stroke-linejoin="round"/>
<path d="M38.61 58.4941H73.6115" stroke="#FFF8F0" stroke-width="2.5" stroke-linecap="round" stroke-linejoin="round"/>
</svg>
